/* XPM */
static char *b4ba86538fa64fbab8abcefdfe4ebe803Lvl5sMGjQw3UazU[] = {
/* columns rows colors chars-per-pixel */
"32 32 30 1 ",
"  c #835026",
". c #845127",
"X c #845227",
"o c #845228",
"O c #855328",
"+ c #875328",
"@ c #865428",
"# c #89552B",
"$ c #8A562B",
"% c #8A572B",
"& c #8B572C",
"* c #8B582D",
"= c #8C582C",
"- c #8D582C",
"; c #8D582D",
": c #8F5B2F",
"> c #905B2E",
", c #915C2F",
"< c #8E5B30",
"1 c #925C30",
"2 c #945F33",
"3 c #955F33",
"4 c #956033",
"5 c #966134",
"6 c #966135",
"7 c #976337",
"8 c #986236",
"9 c #986337",
"0 c #996437",
"q c #996438",
/* pixels */
"66;$@;1666q1-1#OOOO&661-61-&@<>;",
"69;O@;60663-1<&O-OO&671-<11-@<11",
"26&O@;663q<-1-O-2-OO6q1-17q1o*1;",
",1$XX;0q73-1-O&1;-O&13117676@@;1",
"$&O$$@,631-&O&1-1>#O1-1q6666$OO$",
"XX;,6;X$#O&&&;<1q3#O-1666666$X@O",
">,1299XXO&&>>>-369>O&1666666;X$;",
"996992>XO>1>--376q1O&3q66666;@$6",
"9669711&O;1--377292XO6966666;@;6",
"26693-;-O-1-1q7399>+O1966606;$;,",
">>>>->>>O-11q33729,&X;690q61;@;,",
">->->-1>O&<1q37392;XX$>2611;$X*1",
"-1;1>-$OO&-3q73q9>XX&OOO$$$$@$X%",
"&-&&OO$-OO13qqq3&X$>;&$$<>52,;@@",
"OOOX+1991O-131<O --1-&3qq69>;;$@",
"OOOO&2231+O&&.OO&>->-O-1--X@*OOO",
";;$OX$>;-X++++X&361--OOOOO&&O$--",
"992$XX$$O$,&;+X&6q2-&@O--->>113q",
"92>,;XXX-6932&X&6611@O;121-<677q",
">;,,;X$O>9999>X&1116&O;3q2;6q663",
">>>&XX$@-q369>X&<-66-OO13;->11>>",
"++@X$>$X-6q69;X$<176>&OO&&&&@$$$",
"-;1162;@;;7q6&X&-1q1--O&-&--OOXX",
"2999q6;@;111;$X$1<6>1-@;,;9q1OO<",
"666693#O&>-;;$OO:,;;;&@;>2q96X-2",
"666q2-$o$>>;X$$@$1,;$@@@;>66&O>9",
"6961;-OOXX$X;,$@X$&$OO@$$&-& &26",
"96>-,-OO$$$;>>$X$$OX$&11>>&OO-39",
"11-->&O->>22,;$X,6$ ;q1;1--$O-33",
"--11>+1>;6696>$$65>X1q1;23;$O-1-",
"161-O---66666;$$2q1O1q1;7q2&O1-<",
"271&@-<3q666,>$$;;$+661-q31&O>->"
};
