/* XPM */
static char *f8a05b59f86049eec60c036369fa3f2bnysJKnxVe9huvlae[] = {
/* columns rows colors chars-per-pixel */
"32 32 193 2 ",
"   c #010102",
".  c #050408",
"X  c #1A0700",
"o  c #120C07",
"O  c #1E0B00",
"+  c #1E1100",
"@  c #0D0E10",
"#  c #0C1019",
"$  c #131419",
"%  c #221505",
"&  c #261906",
"*  c #221808",
"=  c #382717",
"-  c #161820",
";  c #3E3126",
":  c #2A2C30",
">  c #422B02",
",  c #5A2600",
"<  c #5A2902",
"1  c #4F350A",
"2  c #50350A",
"3  c #56390B",
"4  c #42301E",
"5  c #612D00",
"6  c #693802",
"7  c #703B04",
"8  c #7C3F02",
"9  c #42342C",
"0  c #4A3B2E",
"q  c #573A23",
"w  c #493C32",
"e  c #6D4709",
"r  c #72400B",
"t  c #7C4513",
"y  c #775215",
"u  c #51443A",
"i  c #55493D",
"p  c #5B4A3B",
"a  c #6A4A28",
"s  c #704B2B",
"d  c #6F5124",
"f  c #634A35",
"g  c #644E39",
"h  c #724E31",
"j  c #6C533C",
"k  c #7B5832",
"l  c #574B44",
"z  c #5F5246",
"x  c #725741",
"c  c #735A44",
"v  c #785D47",
"b  c #756251",
"n  c #746458",
"m  c #824202",
"M  c #8C4401",
"N  c #8F520A",
"B  c #9D5807",
"V  c #804C15",
"C  c #AA5000",
"Z  c #B25501",
"A  c #9C701D",
"S  c #B87A1B",
"D  c #845227",
"F  c #865329",
"G  c #8A562B",
"H  c #8E592D",
"J  c #905B2F",
"K  c #8B5A32",
"L  c #895D37",
"P  c #835C3C",
"I  c #925D31",
"U  c #876227",
"Y  c #9A7127",
"T  c #8D623E",
"R  c #966135",
"E  c #986337",
"W  c #906B31",
"Q  c #92633C",
"!  c #996438",
"~  c #A47223",
"^  c #B17D23",
"/  c #B07F2C",
"(  c #D45D00",
")  c #D56400",
"_  c #D96600",
"`  c #DC6B01",
"'  c #DB7003",
"]  c #DC7708",
"[  c #DD7B0C",
"{  c #DB7911",
"}  c #E66E00",
"|  c #ED7402",
" . c #F07801",
".. c #876346",
"X. c #85654B",
"o. c #946947",
"O. c #986A43",
"+. c #9B704C",
"@. c #8B6C53",
"#. c #9C7554",
"$. c #A37957",
"%. c #8E7661",
"&. c #B38123",
"*. c #BD8324",
"=. c #C1831D",
"-. c #DF8412",
";. c #D28C1C",
":. c #E28A18",
">. c #F58B12",
",. c #E5941D",
"<. c #ED931C",
"1. c #C48926",
"2. c #CB8B23",
"3. c #C99226",
"4. c #CB952C",
"5. c #D9992B",
"6. c #E99A23",
"7. c #EC9821",
"8. c #F29C23",
"9. c #D9A62E",
"0. c #DCA330",
"q. c #EAA62B",
"w. c #EDAA2D",
"e. c #F6A026",
"r. c #FDA925",
"t. c #F7A329",
"y. c #FBA62A",
"u. c #FDAA2E",
"i. c #FEB329",
"p. c #E2AB33",
"a. c #EDAE34",
"s. c #E9AD3B",
"d. c #FFAF32",
"f. c #EDB639",
"g. c #FEB334",
"h. c #FFBB34",
"j. c #F1B638",
"k. c #FEB43C",
"l. c #F3BB3B",
"z. c #FEBC3B",
"x. c #FFC234",
"c. c #F3C33F",
"v. c #FEC43D",
"b. c #FFCA3D",
"n. c #EEBB49",
"m. c #FDB447",
"M. c #FDB549",
"N. c #E2B774",
"B. c #FEC341",
"V. c #FDCB44",
"C. c #F7C749",
"Z. c #FFD341",
"A. c #F6D14E",
"S. c #FDD24C",
"D. c #FCD848",
"F. c #FFC854",
"G. c #F7D652",
"H. c #F9D852",
"J. c #FDDC54",
"K. c #FCDF58",
"L. c #FEE546",
"P. c #FDE34D",
"I. c #FEE357",
"U. c #FFE953",
"Y. c #FEE45B",
"T. c #FEE95E",
"R. c #FDF055",
"E. c #FEEC62",
"W. c #FEEE6E",
"Q. c #FEF366",
"!. c #FFF569",
"~. c #FDEB79",
"^. c #FFD186",
"/. c #E7C691",
"(. c #FFDA93",
"). c #FFE285",
"_. c #FEEC89",
"`. c #FEF484",
"'. c #FDF18E",
"]. c #FCEF95",
"[. c #FDF199",
"{. c #FDDDA9",
"}. c #FDEFA6",
"|. c #FEF4A3",
" X c #FEE1B7",
".X c #FEF8B8",
"XX c #FDF0C9",
"oX c #FFEFD7",
"OX c #FFF9DB",
"+X c #FEF8E5",
"@X c #FEFCEC",
"#X c #FDFDF6",
"$X c #FDFFFE",
/* pixels */
"R R H G F H I R R R R K H H H D D F F G R R J H R I J H D J J H ",
"R R H D D H R R R R R +.l # - $ - - # n R ! J H H J I H F H J J ",
"R R G F D H E R T X...@.a 3 1 1 2 2 3 j @.X...@.I ! ! J D H J H ",
"J I G D D H E E ;     & 3.x.g.g.g.g.x.~     . n ! R E I D F H J ",
"G F F G G D P ..d e 6 U /.).S.Z.Z.S.D.4., , 5 a X.Q E R G F F G ",
"F F G I E H ;   5.v.i.A.+X@XW.U.E.E.Q.c.|  . .M   f E I G D F F ",
"J I I R P ..d y N.(.^.(..X|.W.T.E.E.Q.G.q.w.w.S < s P Q H D G J ",
"E E E R 0   ;.v.OX$X$X@XW.L.T.E.T.T.T.E.!.!.!.V.| M   j H D H I ",
"E R P P k y N.(.}..X.X|.n.q.a.a.a.a.a.C.E.E.E.S.q.S 5 h h L G I ",
"I E 0   2.x.+X$X~.P.R.Z.[ ( _ _ ) ) ( ,.E.E.Y.Q.!.B.| m   x J I ",
"J J w   =.i.oX$X`.U.f.q.7.<.<.<.<.<.<.7.q.n.E.E.T.l._ 8 . x J J ",
"I K w o 1.g.oX#X`.H.{ _ u.z.z.g.k.h.z.<.) ,.E.E.T.l._ m o x K I ",
"%.n W A /. X|.'.s.6.<.e.g.g.d.d.u.z.S.A.f.C.B.S.E.H.l.1.M k n @.",
"w   1.x.OX#X`.D.[ ) t.z.d.d.d.d.u.B.E.Q.!.S.t.B.E.Q.!.z.| 7   f ",
"i   *.d.~._.W.Y.-.' t.k.d.d.u.z.S.K.Y.E.E.S.d.B.E.E.T.j._ 7   j ",
"l   *.g.S.I.Q.Y.-.' t.g.d.d.y.B.T.E.T.T.Y.S.u.B.E.T.T.l._ 7 . j ",
"i   *.g.J.E.E.Y.-.' y.g.d.z.S.I.Y.T.I.`.OX].y.B.E.E.E.f._ 7   j ",
"l . *.g.J.E.E.Y.-.' t.g.y.z.Y.E.E.T.P.[.$X Xr.z.E.T.T.f.` 7   v ",
"i   1.g.J.E.E.Y.-.` e.z.S.K.E.Y.U.~.XX@X$X Xr.c.E.E.Q.l.} 7   c ",
"z @ *.w.G.Y.E.Y.:.] 8.k.K.E.Y.E.I.[.$X$X@X Xr.V.E.Y.Y.a.) r @ v ",
"+.+.g + 4.z.K.E.Y.A.[ -.G.!.P._.+X#X$XXXm.M.I.Y.T.c.] N + X.#.O.",
"F F u . 1.g.J.Y.Q.Y.:.-.A.E.P._.OX#X@X{.u.v.E.E.T.l._ 8 . v F H ",
"G H ;   2.z.I.E.E.Y.K.A.z.d.g.k.M.M.M.F.I.Y.T.E.Q.v.} r   j F F ",
"I I z : / 5.G.Y.Y.E.E.I.z.g.k.g.g.g.i.V.T.T.T.Y.G.p.( V : v F K ",
"E R $.$.0 % 5.b.T.T.Q.T.Y.I.K.K.K.I.K.Y.!.!.!.S.>.B O c $.o.F I ",
"R R R E j ; ~ 5.A.T.I.I.Y.E.E.E.E.T.E.Y.G.H.K.0.Z t 9 X.K F I I ",
"R R E I H K 4 & 0.b.v.Z.T.E.E.E.E.E.!.S.>.>.>.C X q F K F G I ! ",
"R R I G H H f 9 Y 1.*.4.A.I.K.J.J.J.E.0.C C Z t 9 k G D F J I ! ",
"R H H H K G F F = + + > 9.Z.b.b.b.b.Z.&.O X O z O.G J G F G I I ",
"H H J J H G K K j u i p Y ^ ^ ^ ^ ^ &.U w p w %.I I J G F J J J ",
"H R J H G G J H Q Q T #.i + * * * % * b +.O.L I I ! I G F J J J ",
"R R J G F H J I R R R R R H G F H I F F I ! I I ! I I G F G J J "
};
