/* XPM */
static char *_f08716e941d4594ae6ee063fd950da1FlLYuJ7sKj5N6H5M[] = {
/* columns rows colors chars-per-pixel */
"32 32 197 2 ",
"   c #020101",
".  c #0A0601",
"X  c #0E0907",
"o  c #07060C",
"O  c #1B1513",
"+  c #260E00",
"@  c #2B1902",
"#  c #311B02",
"$  c #312104",
"%  c #3B2605",
"&  c #21211F",
"*  c #1F1F24",
"=  c #231E20",
"-  c #242323",
";  c #322E2E",
":  c #34302F",
">  c #363130",
",  c #482803",
"<  c #462D0A",
"1  c #4D2D0B",
"2  c #46300D",
"3  c #4A310B",
"4  c #563606",
"5  c #663300",
"6  c #7E3500",
"7  c #743901",
"8  c #4F3A29",
"9  c #573D26",
"0  c #463C35",
"q  c #7D4203",
"w  c #704D11",
"e  c #754519",
"r  c #474139",
"t  c #49413A",
"y  c #5E4938",
"u  c #654529",
"i  c #7A512F",
"p  c #744F31",
"a  c #7A5433",
"s  c #7B6038",
"d  c #454748",
"f  c #5E5B58",
"g  c #6F5846",
"h  c #755B44",
"j  c #745C4A",
"k  c #615E5B",
"l  c #7B634D",
"z  c #6C6057",
"x  c #7A6451",
"c  c #72767D",
"v  c #863800",
"b  c #833D00",
"n  c #814101",
"m  c #8D4301",
"M  c #984903",
"N  c #855B17",
"B  c #A55201",
"V  c #B95A00",
"C  c #8E651C",
"Z  c #A1701E",
"A  c #845227",
"S  c #865328",
"D  c #8A562B",
"F  c #8E592D",
"G  c #905B2F",
"H  c #855834",
"J  c #8E5B31",
"K  c #835B3A",
"L  c #925D31",
"P  c #966135",
"I  c #986337",
"U  c #93623A",
"Y  c #986438",
"T  c #A57C3A",
"R  c #BF7731",
"E  c #D45C00",
"W  c #DB6A00",
"Q  c #DA730C",
"!  c #C07B14",
"~  c #DE7E15",
"^  c #E67709",
"/  c #EE7F0A",
"(  c #F07707",
")  c #F27E04",
"_  c #E5751C",
"`  c #896648",
"'  c #936A47",
"]  c #9A704E",
"[  c #856C58",
"{  c #8B715D",
"}  c #977151",
"|  c #867464",
" . c #A47F60",
".. c #CD811C",
"X. c #DC8318",
"o. c #F88506",
"O. c #FE8A0C",
"+. c #F29209",
"@. c #E0841A",
"#. c #E7881C",
"$. c #F58619",
"%. c #E89D19",
"&. c #F1951E",
"*. c #FCA30F",
"=. c #F9A315",
"-. c #FEAD1E",
";. c #CB942C",
":. c #E69423",
">. c #F59B21",
",. c #EBA325",
"<. c #EEAE2A",
"1. c #FCA324",
"2. c #FCAA21",
"3. c #F5A228",
"4. c #FCAB2C",
"5. c #EDB02F",
"6. c #FFB22C",
"7. c #EEAA31",
"8. c #FBAD32",
"9. c #EFB738",
"0. c #FEB436",
"q. c #FEBB35",
"w. c #F9B93A",
"e. c #FFBA3A",
"r. c #F3C635",
"t. c #FCC634",
"y. c #FFC23B",
"u. c #FECA3D",
"i. c #A98343",
"p. c #B08942",
"a. c #9C816B",
"s. c #A48A74",
"d. c #FDB948",
"f. c #EAAC53",
"g. c #F8BA58",
"h. c #ECB47E",
"j. c #FCB773",
"k. c #F3C543",
"l. c #F8C946",
"z. c #FFCB45",
"x. c #FDCC48",
"c. c #FAD547",
"v. c #FDD44E",
"b. c #FFD655",
"n. c #FEDC55",
"m. c #FEDE58",
"M. c #FFE64A",
"N. c #FCE454",
"B. c #FFEB56",
"V. c #FDE45B",
"C. c #FEE95E",
"Z. c #FFF35C",
"A. c #F9CE64",
"S. c #FCD568",
"D. c #FFCE73",
"F. c #FED574",
"G. c #FED57D",
"H. c #FDE761",
"J. c #FFEC62",
"K. c #FEEB6B",
"L. c #FFF265",
"P. c #FFF56B",
"I. c #FDEA79",
"U. c #FFFF71",
"Y. c #BDBDBC",
"T. c #EBB889",
"R. c #F8CB8D",
"E. c #FED684",
"W. c #FAD38A",
"Q. c #FCCF92",
"!. c #FCD595",
"~. c #FFDB94",
"^. c #FDD99C",
"/. c #FEEE82",
"(. c #FEE98B",
"). c #FEF286",
"_. c #FFE899",
"`. c #FBDDA8",
"'. c #F3D4BC",
"]. c #FFEAAD",
"[. c #FEF6A3",
"{. c #FEF5AF",
"}. c #FEF5B6",
"|. c #FEFDB9",
" X c #D9DADB",
".X c #F3DAC8",
"XX c #FAE4C2",
"oX c #FEFCC4",
"OX c #FFFDCE",
"+X c #FAEAD6",
"@X c #FDF6D8",
"#X c #FFEEE1",
"$X c #FEF7E7",
"%X c #FDFBE4",
"&X c #FDFEEC",
"*X c #FFFEF6",
"=X c #FEFFFE",
/* pixels */
"P P F S S F L P P P P F F G D A A S S S L Y L F L L F F S F G F ",
"P P F S S F P P P P P F { : : > > > ; z } L L F F L L F S F G G ",
"L P D S S G P P Y K i K l % $ @ $ $ # u h H i H L Y Y L A D L F ",
"L L D S S F I P a.- * & C <.7.7.7.,.^ M 2 - = h L Y Y L S S F L ",
"D D S D D S U K l % % % p.F.v.u.z.y.-.! y > # 9 a L Y Y D S S D ",
"S S D G P F a.o w 6.2.2.].=X_.N.H.C.M.I.&X.X$.M O x L L D S S S ",
"G L L P P K x 3 T G.F.D.].@X).C.C.L.).|.*X#Xj.R 1 u p U F A D F ",
"P P P P i O 4 6.~.=X=X=X[.B.C.L.B.I.@X=X=X=X=X'.$.v X j J S F L ",
"P P P P K . 4 -._.=X&XoXA.5.5.9.t.S.@X=X=X&XOXW.$.v   g J D D P ",
"P P P P ] . , *.~.=X|.Z.%.E E W +.d.+X=X=X@XP.r.$.m   j L D F L ",
"F F G p [ w i.!.].|.A.,.f.T.h.h.R.~.!.^.}.[.J.c.>.! 7 a | S F F ",
"F F F O < 2.E.=XoXZ.%.E T.=X=X=X=X+Xd.-.N.J.J.b.e.&.) v . A D L ",
"F L L o , 4.A.{.I.t.g.T.+X=X=X=X=X%XF.t.l.z.H.b.e.&.o.n . S S D ",
"D D D o < 4.z.H.u.2.!.=X=X=X=X=X=X%XU.c.0.e.C.m.e.&.) n . F S S ",
"S S S o 2 7.z.B.u.2.^.=X=X=X=X*X}./.I.M.0.0.C.m.0.&.) n . F S S ",
"S S S o 2 8.z.J.x.2.^.=X=X=X=X%X/.M.H.m.0.0.C.m.e.&.) n . S S S ",
"F D F o < =.A.OXE.2.!.=X=X=X|.I.K.N.J.m.0.e.C.m.e.&.) q . D F F ",
"I Y J o 3 8.!.=X^.-.!.=X=X%X(.M.C.C.H.m.0.0.C.m.0.&.o.q . L P P ",
"I P F . t XX$X=XW.*.!.=X|.I.K.V.C.H.L.V.0.0.C.m.e.&.) n . P P I ",
"G F F o d =X=X=X`.d.!.#X(.M.B.H.C.C.n.x.e.e.C.m.e.&.) 6 . P P P ",
"F F F   d =X=X=X$X+XQ.g.b.J.P.K.P.V.:.X.v.H.H.V.y.&.O.n . G G G ",
"S D S 0 k Y. X=X=X&XG.-.u.m.v.l.c.k.@.X.V.P.V.l.6...E e t D D D ",
"D F G ] s.* c =XoXK.H.V.x.0.#.Q Q X.k.H.C.N.w.3.$.M + l ` S S S ",
"P P P P s.  0 '.(.M.Z.L.v.e.:.X.~ :.V.U.J.n.w.&.) q   x G S S G ",
"P P P Y s.  , _ e.K.L.K.H.C.V.N.V.V.C.C.J.m.e.1.o.M   j U A D P ",
"P P P P  .f y v ! l.y.r.n.J.L.P.P.L.b.v.b.z.4.X.B e 9 ` J A J P ",
"P P P L L ] | o 5 / ( ^ 9.L.J.C.J.V.e.0.y.4.$.B . y D D A D L P ",
"P P L F L F ' y u b 6 6 ;.m.v.v.v.z.1.@.Z N m 7 y K D S S F P Y ",
"L G F F F D S F [ .     C u.y.q.y.6.O.V @     8 F G G S A F L L ",
"F F F F F S F L } l j l s N N N N N q e j l h ` L L G D S F F F ",
"G L L F S D L F P Y P Y l X . . . . . r } Y L L Y Y L D S G G F ",
"L Y G F S F F L P P P P L G D S J L S D L L L G P P L D D F F G "
};
