/* XPM */
static char *_da962b1a6b5473adb3c21ba398e72b5UnetwXPDf31relU5[] = {
/* columns rows colors chars-per-pixel */
"32 32 187 2 ",
"   c #020103",
".  c #160C0A",
"X  c #1D1516",
"o  c #1C181B",
"O  c #2F1700",
"+  c #2F1802",
"@  c #301802",
"#  c #381E07",
"$  c #251914",
"%  c #2F2705",
"&  c #362F0B",
"*  c #37330C",
"=  c #26211D",
"-  c #35261F",
";  c #3A3512",
":  c #1B1926",
">  c #1F2027",
",  c #2C2826",
"<  c #342D27",
"1  c #3A372E",
"2  c #353232",
"3  c #3B3533",
"4  c #3A3A3C",
"5  c #452605",
"6  c #572704",
"7  c #4C390E",
"8  c #58310B",
"9  c #402613",
"0  c #642700",
"q  c #692100",
"w  c #632900",
"e  c #6A2B01",
"r  c #6C3607",
"t  c #7F3C00",
"y  c #613917",
"u  c #533822",
"i  c #473D35",
"p  c #603D22",
"a  c #594212",
"s  c #4C4C22",
"d  c #5F4926",
"f  c #49433C",
"g  c #52463C",
"h  c #59473A",
"j  c #63452D",
"k  c #694528",
"l  c #784C28",
"z  c #664B36",
"x  c #7C5333",
"c  c #6C6B3F",
"v  c #464249",
"b  c #6D5C4E",
"n  c #625C59",
"m  c #696341",
"M  c #79614E",
"N  c #796653",
"B  c #7D695A",
"V  c #6F6B6D",
"C  c #8F4806",
"Z  c #974E04",
"A  c #9B6B17",
"S  c #A6610D",
"D  c #AC6912",
"F  c #845227",
"G  c #865328",
"H  c #89562B",
"J  c #8E592D",
"K  c #905B2F",
"L  c #845630",
"P  c #845935",
"I  c #8D5D34",
"U  c #925D31",
"Y  c #8D7822",
"T  c #966135",
"R  c #986337",
"E  c #91623A",
"W  c #996438",
"Q  c #CA6506",
"!  c #CD6904",
"~  c #D56B05",
"^  c #D56B07",
"/  c #D96D04",
"(  c #DB7405",
")  c #D4730D",
"_  c #DB7409",
"`  c #DC780C",
"'  c #D7791B",
"]  c #E47C06",
"[  c #E4740C",
"{  c #E37D0D",
"}  c #D97625",
"|  c #876243",
" . c #946946",
".. c #9C6D46",
"X. c #946C4C",
"o. c #8C6C53",
"O. c #8A735B",
"+. c #967459",
"@. c #A07B5D",
"#. c #8D7767",
"$. c #967C67",
"%. c #9C8F38",
"&. c #B58726",
"*. c #E68109",
"=. c #E5890B",
"-. c #F58E0F",
";. c #E78B15",
":. c #EC8D1A",
">. c #E3941D",
",. c #F7991D",
"<. c #CD9627",
"1. c #E49720",
"2. c #E59B23",
"3. c #E59D29",
"4. c #ED982B",
"5. c #F29B22",
"6. c #C1B637",
"7. c #D2BC3F",
"8. c #E5A42D",
"9. c #ECA42B",
"0. c #E9AB2D",
"q. c #FBA727",
"w. c #FDAA25",
"e. c #F7A42B",
"r. c #FBAC2A",
"t. c #EFB724",
"y. c #FEB42C",
"u. c #E5AC33",
"i. c #ECAC31",
"p. c #F6AD33",
"a. c #ECB938",
"s. c #EFBC3D",
"d. c #FDB334",
"f. c #FBBA34",
"g. c #FFB738",
"h. c #F0BA3D",
"j. c #FEBC3B",
"k. c #FEC43B",
"l. c #FEC53B",
"z. c #BDB847",
"x. c #9B8067",
"c. c #9E846E",
"v. c #A1856E",
"b. c #A58972",
"n. c #A78A73",
"m. c #C1B746",
"M. c #C4BA49",
"N. c #C5BC58",
"B. c #EFBC41",
"V. c #CBC249",
"C. c #E9C945",
"Z. c #FAC845",
"A. c #FFCA44",
"S. c #FFDB45",
"D. c #FAD04D",
"F. c #FDDD55",
"G. c #F9E155",
"H. c #F7E359",
"J. c #FDE55A",
"K. c #FFEA5D",
"L. c #FBF959",
"P. c #D8CF69",
"I. c #EDC265",
"U. c #FDEC61",
"Y. c #FDF265",
"T. c #FDFB65",
"R. c #F6F46E",
"E. c #FEFC6B",
"W. c #FFF570",
"Q. c #8E8E9B",
"!. c #C1BFA3",
"~. c #C0BBBB",
"^. c #EFC686",
"/. c #F3CD8F",
"(. c #FFFE9B",
"). c #C1C1BF",
"_. c #EFCCAE",
"`. c #F0C9AB",
"'. c #FFFFA3",
"]. c #FDFEAB",
"[. c #CBCBC5",
"{. c #C4C5CC",
"}. c #C1C3D6",
"|. c #F1E3C4",
" X c #F7F6D7",
".X c #FDFEE7",
"XX c #FDFDFE",
/* pixels */
"T T J G G J U T T T T K J K G F F F F H U W U J U U K H H J K J ",
"T T J G G J T T T T T J K X.b i g i v o...W J J I U U J G K K K ",
"T T H G G J R T T T K K U M 1       $ N E W U J K W W U F H K K ",
"K U H F F J R R T T J  .h a A <.D D Z y g O.U U R U W U G G J K ",
"H H G H H G K T T K ..x.: 5 <.l.l.5.( e X B I W T T R U H G G H ",
"G F J K T J F H H X.B V Q.~.|.^.4.-.,.' Z k z P I T R R H G G G ",
"K K K T W T F F H o.= v [.XXXX/.} *.y.q.^ 0 $ j P R R U J F H K ",
"T R T R R T J F H +.o % N.'.].I._ [ d.w.~ 6 X j I R R U J F J U ",
"R T T T T K K U | c.v m P.W.J.0.{ :.d.q.` t 9 j x U R T J F J U ",
"T T R T U J K @.N n Q.[. X/.8.=.5.r.g.d.5.) Z y u R R T J H K U ",
"K K K K J J J n., 2 [.XXXX_.} ] p.d.e.d.k.q./ r # R R K H H J K ",
"K J J J K K K n., 2 [.XXXX_.} { r.5.{ i.G.j.~ 0 O U K K H F H K ",
"J K K K J H H v., 4 ~.XXXX_.} { q.:./ 8.U.A.Q 0 O H J H H G G H ",
"H H J H H G H v.< 4 {.XXXX_.>.] q.:.( u.K.k.Q 0 O U T U K J H G ",
"F H F F G U R n.< 4 {.XX.X^.' ;.g.9.( 8.J.k.Q 0 @ R U K K J G G ",
"F F F H H U T n.< 4 }..X(.s.( 2.F.a._ 3.J.k.Q 0 @ H H G H F G G ",
"J J H F G H J n.2 3 !.'.T.t.( 8.U.k.) 2.J.k.Q 0 @ H G H H H J J ",
"R W U H G F H v.2 ; z.E.T.a.( 9.J.s.) 3.J.k.Q w O J U J K U T T ",
"R U K K H H G c.2 * 6.L.T.h._ 2.H.Z.;.i.J.k.Q w + U J U T T R R ",
"K K K U H F G c.2 ; m.T.E.h.( 1.H.F.d.A.J.f.Q w + U J U W T T T ",
"K K K H G G G c.2 ; m.T.E.h._ >.F.F.g.A.U.d.! w @ K J K K K K K ",
"G G G F H U H c.2 ; z.T.E.h._ 2.F.F.d.A.K.d.Q w + H H G H H H H ",
"H J K U T U H v., & M.E.E.h._ >.F.U.D.F.K.f.! w O J J J G G G F ",
"U R R R R T J c., & V.R.E.h.( >.H.E.U.Y.U.f.~ e # K R W U F G J ",
"R R U R R U H  .$.O.c %.C.f.:.:.8.D.K.F.i.D r p k U R W U G H T ",
"T T R R U K H H I +.4 7 <.f.y.:._ u.J.A.) e $ y L U R R J G U T ",
"T R R U J J G G F o.: 7 7.T.J.9.~ 8.Y.S.[ q . u l J H H G H U T ",
"R T K H K J F G H o.3 a z.E.Y.i._ 3.H.A.) q < z L J H G G H T R ",
"U J J J K G G J I I X.N s Y C.S.y.y.q.S 5 h | J J J K H G J U U ",
"J J K K J H K K H T W $.f 7 &.l.u.1.! 0 2 #.U J U U K H G J J J ",
"K T U J H H K J U W W ..X.M d a a 8 6 h o...U J R R U H G U J K ",
"U R K H G J J U W U T U I J H H H U G H U T U U T T U H G J K J "
};
