/* XPM */
static char *_fe818ff741a41699d6e6571c58306b2EZeqiEBhQNKMgYS9[] = {
/* columns rows colors chars-per-pixel */
"32 32 182 2 ",
"   c #020101",
".  c #080806",
"X  c #0F0906",
"o  c #120602",
"O  c #150D0B",
"+  c #19170B",
"@  c #170F11",
"#  c #171012",
"$  c #231101",
"%  c #291601",
"&  c #341700",
"*  c #3C1D00",
"=  c #221513",
"-  c #231B12",
";  c #311B10",
":  c #312D0E",
">  c #282217",
",  c #2C231D",
"<  c #34271C",
"1  c #221826",
"2  c #2A2423",
"3  c #28292A",
"4  c #332A23",
"5  c #372B25",
"6  c #362D29",
"7  c #34302E",
"8  c #3D322A",
"9  c #393531",
"0  c #422306",
"q  c #5B300C",
"w  c #443A1F",
"e  c #523113",
"r  c #723D06",
"t  c #473729",
"y  c #443B35",
"u  c #453B36",
"i  c #5F572B",
"p  c #4E433A",
"a  c #53453A",
"s  c #554538",
"d  c #654F3E",
"f  c #68513E",
"g  c #785638",
"h  c #6E6223",
"j  c #7A753F",
"k  c #4D4C4A",
"l  c #5A5C5D",
"z  c #635144",
"x  c #6C5542",
"c  c #735945",
"v  c #745D48",
"b  c #786049",
"n  c #726254",
"m  c #7A6757",
"M  c #7E6A56",
"N  c #85460B",
"B  c #994800",
"V  c #8B520D",
"C  c #9C5001",
"Z  c #814E18",
"A  c #985F11",
"S  c #A85402",
"D  c #B35A02",
"F  c #BC5A01",
"G  c #BF6102",
"H  c #A66A15",
"J  c #BF7C1B",
"K  c #845227",
"L  c #865328",
"P  c #8A562B",
"I  c #8E592D",
"U  c #905B2F",
"Y  c #855B36",
"T  c #8C5F3B",
"R  c #925D31",
"E  c #966135",
"W  c #986337",
"Q  c #956339",
"!  c #996539",
"~  c #C35C00",
"^  c #CD5900",
"/  c #CE6401",
"(  c #C96708",
")  c #D56500",
"_  c #D66A02",
"`  c #D96C01",
"'  c #DB7104",
"]  c #DB760B",
"[  c #DE7C0D",
"{  c #D56D12",
"}  c #DB7617",
"|  c #DB761C",
" . c #E26F00",
".. c #E37906",
"X. c #E47C0A",
"o. c #D8792C",
"O. c #886549",
"+. c #836A53",
"@. c #8E7159",
"#. c #99775C",
"$. c #9A7C63",
"%. c #877D73",
"&. c #9C8A34",
"*. c #9C903A",
"=. c #E6820D",
"-. c #EE880F",
";. c #F08107",
":. c #E58312",
">. c #E98815",
",. c #E18B1A",
"<. c #EA8B1C",
"1. c #E6961F",
"2. c #EA951E",
"3. c #ED9B1F",
"4. c #F2961D",
"5. c #E49521",
"6. c #EB9420",
"7. c #E69C24",
"8. c #F39C23",
"9. c #FC9F27",
"0. c #DAA833",
"q. c #E5A127",
"w. c #E5A128",
"e. c #ECA42A",
"r. c #F3A42A",
"t. c #FCA72C",
"y. c #F5AB2E",
"u. c #FCAA2E",
"i. c #E7A630",
"p. c #F5AD32",
"a. c #FCAC30",
"s. c #EDB236",
"d. c #EAB83B",
"f. c #EDBD3E",
"g. c #FDB234",
"h. c #FEB638",
"j. c #F5B839",
"k. c #FEBB3B",
"l. c #868747",
"z. c #B6A643",
"x. c #EDA04A",
"c. c #DEA571",
"v. c #F6B66E",
"b. c #D8CC4C",
"n. c #C9C754",
"m. c #D2C956",
"M. c #D8C852",
"N. c #CFD45D",
"B. c #F3C343",
"V. c #FEC544",
"C. c #FCCA46",
"Z. c #FECE4A",
"A. c #FDD24D",
"S. c #FBD84B",
"D. c #FDD651",
"F. c #FDDB54",
"G. c #F9DF58",
"H. c #EDE35D",
"J. c #FEE156",
"K. c #FDE45B",
"L. c #FEE95E",
"P. c #E3EA65",
"I. c #FEEC62",
"U. c #FFF165",
"Y. c #FFF569",
"T. c #FFF96C",
"R. c #878A8D",
"E. c #A99C8E",
"W. c #D9AE84",
"Q. c #EAC49A",
"!. c #D2D5B8",
"~. c #FAD3AB",
"^. c #E9D2BC",
"/. c #FDE0AA",
"(. c #C8CDD2",
"). c #FDE6CE",
"_. c #FDE6D7",
"`. c #FFEBD2",
"'. c #D4DCE4",
"]. c #D2DDEB",
"[. c #D7E0E8",
"{. c #E4EEF6",
/* pixels */
"E E I L L I R E E E E R I R I L L L L P R ! R U E R U P L U U I ",
"E E I L L I E E E E R I $.u u a a p u m E W R P P R R U L U U U ",
"E E P L L U E E E E I I n             p E W U I R W ! R L P U I ",
"U U P L K I W W O.t , 2 l.M.J S D D F N 6 2 y @.W E E R L L P R ",
"P L P P P L U E O.9 @ o &.J.8...X.X.-.H + o > +.W ! E E P L L P ",
"L P P U E I P < l ].W.( ( [ 4.u.9.h.J.x.( ^ F q 7 $.E E P L L L ",
"U U R E W O.O.k %.^.v.<.X.>.p.C.k.Z.I.D.1.3.1.V 0 +.T E I L P U ",
"E E E E ! t 9 (.Q.o.<.a.t.t.S.I.U.Y.Y.U.J.K.J.w.~ e < R P L P R ",
"W E E E ! + 7 {.~.{ =.a.x.S.L.L.B.s.p.B.U.U.I.y.) * O R R L P R ",
"E E E W Q - 3 {.~.{ =.u.Z.I.T.J.,.) _ 1.I.Y.K.e.^ * # W I P R R ",
"I I U @.n R.E.c.x.2.p.A.I.I.s.1.6.6.2.2.7.f.I.A.s.H r v +.L I R ",
"I I I 2   '.`.| X.u.A.L.U.K.,.` r.h.h.8.` 5.U.U.I.8.` % = L P I ",
"U R I 4   [.`.| =.u.A.L.f.7.3.8.t.g.a.g.f.B.V.F.I.3.) $ 2 P L P ",
"P P I 4 . '.).| =.t.Z.U.7.` 8.k.g.g.g.V.U.F.t.Z.L.1./ % 2 U L L ",
"L K L 4 . '.).| =.t.Z.I.q.' 8.h.t.h.A.K.L.D.u.A.I.1.) % , I P L ",
"L L L 4 . '.).| =.t.A.I.q.` 8.h.h.C.I.U.L.A.a.A.L.1./ % , L L L ",
"I P P 4 . ]._.| =.t.A.I.w.' 4.k.D.I.K.I.L.A.a.A.I.2./ % , P I I ",
"W W E 4 . !./.} :.t.A.I.7.` r.Z.K.I.L.L.I.A.t.A.I.1./ % , E E E ",
"W E U 6 . m.D.] :.t.A.I.7.' B.U.L.L.K.I.I.A.a.A.L.1./ % , W W W ",
"U I U 2   b.S.' :.t.A.I.B.e.B.D.K.I.L.K.Z.Z.V.G.I.3.) $ > E E E ",
"I I I 8 . N.S.] >.t.Z.K.Y.I.k.a.F.I.I.A.a.V.U.I.K.1./ ; 6 R U U ",
"L P L v M j &.0.e.<.y.C.K.I.D.C.Z.C.C.Z.C.D.L.C.i.A r b c P P P ",
"P I U R E 1 + P.C.) =.t.A.K.U.K.h.u.t.k.I.U.K.e.^ & @ I L L L L ",
"E W W E ! 3 : H.C.` >.g.h.V.K.L.F.D.F.F.I.U.L.y.) 0 O W U L L I ",
"E E E E ! y w n.d.[ 1.u.t.y.A.L.L.L.L.K.G.J.G.7.F e 5 E R L P R ",
"E E E E E I Y > h H.j.X.' ] r.k.h.h.h.y.X.X.[ r = @.W E I L R E ",
"E E E R I I Y 8 i N.0.G _ :.8.u.t.t.u.6.G ~ ( q 6 #.P P L P R W ",
"E E R I U P L L g -     *.L.e. .....;.S X   = +.I R P L L P E ! ",
"R U U U U L P I T d a a l.z.H B C C C Z s a x @.P U U P L P R R ",
"I P U U I L U U I E E ! m             a R ! R I R R U P L I U U ",
"U R U U P P U I E E E E #.z f x x c f O.R ! U U ! E R P L U I U ",
"E E U P L P U R W E E E I I P L I R L L E E R U W E R P L I U I "
};
