/* XPM */
static char *_e0fe8f7e11440d3e47acf1d1c430714fNxMbJ4cqzF5YNl3[] = {
/* columns rows colors chars-per-pixel */
"32 32 149 2 ",
"   c #000000",
".  c #0A0704",
"X  c #0A0807",
"o  c #170400",
"O  c #140A04",
"+  c #160F09",
"@  c #1A1714",
"#  c #181818",
"$  c #230C00",
"%  c #261208",
"&  c #25190E",
"*  c #281A0F",
"=  c #331100",
"-  c #391200",
";  c #251F1A",
":  c #2E261F",
">  c #342315",
",  c #292420",
"<  c #2F2823",
"1  c #272C2E",
"2  c #312B25",
"3  c #3B332C",
"4  c #272E31",
"5  c #313131",
"6  c #431200",
"7  c #452C16",
"8  c #4D321B",
"9  c #57391F",
"0  c #722700",
"q  c #7B2700",
"w  c #7B2900",
"e  c #463126",
"r  c #57412E",
"t  c #4E453C",
"y  c #624329",
"u  c #7B4124",
"i  c #5A4E44",
"p  c gray33",
"a  c #7C6A5F",
"s  c #6C6C6C",
"d  c #7D6D60",
"f  c #7C7D7E",
"g  c #8A2F00",
"h  c #833004",
"j  c #893C14",
"k  c #A13400",
"l  c #A73800",
"z  c #A83A00",
"x  c #B83E00",
"c  c #AF571F",
"v  c #B5581F",
"b  c #855227",
"n  c #865328",
"m  c #8A562B",
"M  c #8E592D",
"N  c #915B2E",
"B  c #9A5C2C",
"V  c #825836",
"C  c #8E5D34",
"Z  c #925D31",
"A  c #A95A26",
"S  c #AC5F2C",
"D  c #B55E26",
"F  c #B05F29",
"G  c #966135",
"H  c #986336",
"J  c #996438",
"K  c #BE6025",
"L  c #A56334",
"P  c #A86739",
"I  c #CF4600",
"U  c #D04900",
"Y  c #DB4A00",
"T  c #D94F08",
"R  c #D4560F",
"E  c #C85716",
"W  c #CF5915",
"Q  c #C15B1D",
"!  c #CB5C1C",
"~  c #E94D00",
"^  c #FF4700",
"/  c #FF4C00",
"(  c #E75A0D",
")  c #ED5A0B",
"_  c #F65403",
"`  c #FF5400",
"'  c #FE5901",
"]  c #F75A0A",
"[  c #FE5C0C",
"{  c #E7611B",
"}  c #EA621B",
"|  c #FF6013",
" . c #FB671B",
".. c #FB691D",
"X. c #C56026",
"o. c #C3632A",
"O. c #D7682A",
"+. c #DD6A2C",
"@. c #D4723A",
"#. c #E06A2B",
"$. c #FC6C22",
"%. c #FC6F29",
"&. c #FF7029",
"*. c #E26F30",
"=. c #E17332",
"-. c #EC7536",
";. c #F6793B",
":. c #9D8A78",
">. c #B89271",
",. c #BF9878",
"<. c #FF8245",
"1. c #FF874D",
"2. c #F58B51",
"3. c #FF8E50",
"4. c #F39663",
"5. c #AE9885",
"6. c #BFA792",
"7. c #B6B6B6",
"8. c #D0B095",
"9. c #DBBA9E",
"0. c #EFAA81",
"q. c #FFAB84",
"w. c #FFB48F",
"e. c #FFB691",
"r. c #D7BBA3",
"t. c #E1C5AC",
"y. c #E6C9AF",
"u. c #E8CBB2",
"i. c #E7CFB8",
"p. c #FFC9B1",
"a. c #EFD0B5",
"s. c #E7D2BB",
"d. c #F7D8BD",
"f. c #BBBFC0",
"g. c #CACECF",
"h. c #CFD1D2",
"j. c #D1D3D4",
"k. c #D9DCDE",
"l. c #FFD7C4",
"z. c #FDDDC1",
"x. c #FFE3CD",
"c. c #EAEDEF",
"v. c #FFEEE7",
"b. c #FFF2ED",
"n. c #FFF5EF",
"m. c #FFF9F4",
"M. c #FFFDF7",
"N. c #F3F7F9",
"B. c #FDFEFE",
/* pixels */
"G G M n n M Z G G G G Z M N m n n n n m Z J Z M Z Z M m m M N M ",
"G G M n n M G G G G G M N M n m M m b m G J Z M M Z Z M n M Z M ",
"G G m n n M H G G G M L ] _ ] _ ] _ _ O.Z J N M Z H J Z n m Z M ",
"N Z m b b M J G H G A o.' ` ` ` ` ` ` { F P M Z H G G Z n n M N ",
"m m n m m n M G H N ` ` ' ` ` ` ` ` ` ` ` @.Z H G G G G m b n m ",
"n n m N G M b m v E ` ` ` ` ` ` ` ` ` ` ` } ! S G G G G m n n n ",
"N Z Z G J G m b ` ` ' ` ` ` ` ' ` ` ` ' ` ` ` ! G G H G m b m M ",
"G H H G H B W R ' ` ` ` ` ` ` ` ` ` ` ` ` ` ` ) W K G G M n m G ",
"G G G G H B _ _ _ _ ` ` ` ' ` ` ` ` ` ` ` ` _ _ _ ! H H M n M G ",
"G G G H ( T $ o o 6 ' ` ` ` ` ` ` ` ` ` ' k o o O h ) D M n N N ",
"N N B B ' ~ = % 1 e I Y ` ` ` ` ` ' ' _ U j 4 ; $ g ' Q B n M N ",
"M N ] _ ` ` ` %.B.h.  - ' ' ' ' ' ' ' x   s B.w.^ ` ` _ _ c m N ",
"N B ] ` ` ` / &.B.j.  $ l z l l l l z 0   s B.e./ ` ` ` ` v b m ",
"m m ] ` ` ` ` &.B.j.                      s B.e./ ` ` ` ` D n n ",
"K X.' ` ` ' ` &.B.j.  # f a q w q u f p   s B.w./ ` ` ` / O.o.n ",
"` ` ` ` ` ` / &.B.j.  5 B.x.` ' ` 3.B.7.  s B.w./ ` ` ` ` ` ` n ",
"] ` ` ` ` ` / %.B.N.f.g.B.l.` ` / 1.B.c.f.k.B.e.^ ` ` ` ` ' _ M ",
"' ' ` ` ` ` / %.v.n.M.m.b.p./ ` / <.b.n.M.m.b.q./ ' ` ' ` ` _ H ",
"' / ` ` ' ` ` ' | | [ [ [ [ ` / / ` [ [ [ [ | [ ` ` ` ` ` _ ` J ",
"{ } ' ` ` ` ` ` ` ` .. . .......$.$.......[ ` ` ` ` ` ` ` ] { G ",
"M B ` ` ' ` ` ` ^  .u.u.u.u.y.u.u.y.u.u.s.4.^ / / ` ` / ` D B C ",
"n m +.+.+.=.*.*.;.2.u.u.u.u.u.u.u.u.u.u.s.0.;.-.#.#.+.+.+.S m m ",
"n C C Z G Z m n i.s.u.u.u.u.u.u.u.u.u.y.u.u.s.>.M M M M n b b b ",
"Z J J Z 9 8 7 r u.a.u.u.u.u.u.u.u.u.u.u.u.u.u.,.M N H J Z n n N ",
"H G G C .     ; y.i.u.u.u.u.u.u.u.u.u.u.u.u.u.>.Z Z J J Z n m G ",
"G Z > &       X 2 2 2 i a.u.u.u.y.u.u.u.d.:.2 < : y G H m n Z H ",
"G C X                 , t.t.u.u.u.u.u.u.i.d       7 m m n m Z G ",
"J C X                 . @ t a.u.y.u.z.5.@ +       7 m n n m G J ",
"G m > *                   3 9.8.9.r.6.a       O * 9 N m b M Z Z ",
"m M M m + . . . . . . . . > m m Z V . . . . . 8 G Z N m n M M M ",
"C G Z M m m N M G G G G G N m m Z J Z b Z J N N J H Z m m C M N ",
"G G N m n M M Z J G G G N N m n M N n m G G Z M H H N m n M N M "
};
