/* XPM */
static char *_5b2259e2e194e6ba2812f0b6ee3caf4LJMDdnxLnm0guWYo[] = {
/* columns rows colors chars-per-pixel */
"32 32 167 2 ",
"   c #020100",
".  c #0A0400",
"X  c #120701",
"o  c #130801",
"O  c #190A02",
"+  c #250F02",
"@  c #2D1103",
"#  c #351404",
"$  c #3C1603",
"%  c #421904",
"&  c #4D1D04",
"*  c #421C08",
"=  c #521F05",
"-  c #5E1F00",
";  c #4F2009",
":  c #552005",
">  c #5B2306",
",  c #642505",
"<  c #6B2502",
"1  c #6C2905",
"2  c #632A0F",
"3  c #6F2B08",
"4  c #742700",
"5  c #7A2600",
"6  c #752B05",
"7  c #7B2D05",
"8  c #752D0A",
"9  c #7B2E08",
"0  c #7E3007",
"q  c #77330D",
"w  c #7E3109",
"e  c #673016",
"r  c #7F3510",
"t  c #7B451E",
"y  c #6B4323",
"u  c #754926",
"i  c #7B4A26",
"p  c #794732",
"a  c #832C01",
"s  c #892D00",
"d  c #833207",
"f  c #893407",
"g  c #843209",
"h  c #8B3509",
"j  c #8C3A0E",
"k  c #973807",
"l  c #913709",
"z  c #94390A",
"x  c #9B3B0A",
"c  c #853B13",
"v  c #8B3C12",
"b  c #923D12",
"n  c #9A3F12",
"m  c #A93600",
"M  c #AD3A03",
"N  c #A63F0A",
"B  c #B13E04",
"V  c #BD3B03",
"C  c #9D420F",
"Z  c #8C471A",
"A  c #924213",
"S  c #9A4314",
"D  c #9A431B",
"F  c #9B481C",
"G  c #A7400A",
"H  c #AA4009",
"J  c #B5440E",
"K  c #A94717",
"L  c #A64A1D",
"P  c #AB4B18",
"I  c #8F4F21",
"U  c #8F4828",
"Y  c #954420",
"T  c #984926",
"R  c #9A4E2C",
"E  c #845227",
"W  c #865328",
"Q  c #8A562B",
"!  c #8E592D",
"~  c #925124",
"^  c #96552C",
"/  c #905B2F",
"(  c #8E5A30",
")  c #925D31",
"_  c #965539",
"`  c #A74920",
"'  c #AA4C20",
"]  c #A44F29",
"[  c #A75427",
"{  c #A75028",
"}  c #B25425",
"|  c #B95425",
" . c #B85629",
".. c #B65A2E",
"X. c #A55C3F",
"o. c #B45C33",
"O. c #BF5E33",
"+. c #966135",
"@. c #986337",
"#. c #97623B",
"$. c #9B643B",
"%. c #9F683E",
"&. c #A76338",
"*. c #AC633C",
"=. c #C24D14",
"-. c #DC5C1C",
";. c #C05320",
":. c #C65B27",
">. c #C25B29",
",. c #D85C24",
"<. c #C15E30",
"1. c #DF5439",
"2. c #CD612C",
"3. c #C46134",
"4. c #CD6436",
"5. c #CE6739",
"6. c #C76A3F",
"7. c #CD6A3D",
"8. c #D36734",
"9. c #DC6733",
"0. c #D26A3B",
"q. c #E16F3B",
"w. c #E1713C",
"e. c #9E6740",
"r. c #9D6A43",
"t. c #A26B43",
"y. c #BC6A46",
"u. c #A6714B",
"i. c #A9714B",
"p. c #B7704E",
"a. c #B8714F",
"s. c #AD7653",
"d. c #AF7856",
"f. c #B67553",
"g. c #B47855",
"h. c #B57C5C",
"j. c #BB7C5B",
"k. c #BC7F61",
"l. c #C76C45",
"z. c #D16D42",
"x. c #CB744A",
"c. c #D27245",
"v. c #D6764C",
"b. c #C47B56",
"n. c #CB7951",
"m. c #C37D5C",
"M. c #D27D55",
"N. c #D97D53",
"B. c #D17C58",
"V. c #B48364",
"C. c #BA8061",
"Z. c #B49175",
"A. c #BB967A",
"S. c #C78565",
"D. c #CB8867",
"F. c #D78866",
"G. c #D18968",
"H. c #E48E7B",
"J. c #E88A78",
"K. c #D79E8A",
"L. c #C2A790",
"P. c #DBA191",
"I. c #E4A688",
"U. c #E5A797",
"Y. c #E3B1AC",
"T. c #F1BEB4",
"R. c #EAD0C7",
/* pixels */
"+.+.! W W ! ) +.+.+.+.) ] I.P.P.R.Z.E W ) @.) ! +.) ! Q W ! / / ",
"+.+.! W W ! +.+.+.@.+.! ~ Y.J.1.T.L.E Q +.$.) ! ! ) ) ! W ! ) ! ",
"+.+.Q W W / @.+.@.+.) ! ^ K.U.H.R.V.E Q ) @.) ( ) $.@./ E Q / ! ",
"/ ) Q E E Q t.i.t.) ) u.y.j.Z.Z.A.d.%.$.) @.e.i.%.) +.+.W W ! ) ",
"Q W W Q Q W &.n.h.( t.M.8.x.t.! V.c.8.b.) ) m.c.&.+.+.+.Q W W Q ",
"W Q Q / +.! S 3.k.Q r.6.V c.r.( g.4.V b.) ) S.=.[ +.+.+.Q W W W ",
"/ ) ) +.@.+.Z } B.C.m.} 5 <.m.g.M.` 5 3.D.k.N.j i +.+.+.! E Q ! ",
"+.+.@.+.+.+.I S D Y ' n 1 n D T L f 6 n ] Y K 8 u +.+.+.! E ! ) ",
"+.+.+.+.@./ ~ g 6 s a d z 4 5 a < 7 z d a s < c ~ +.@.+.Q Q Q +.",
"+.+.+.+./ / ~ j f 1 % $ 8 g f g 7 d , # & d g g E +.@.+.! Q / / ",
"/ / ) / Q / ~ S z &     # z f 8 k f @   . > H q u @.+./ Q W ! / ",
"/ Q / / / / I j h , .   % 8 h l 8 9 &   o : g j ~ +./ ! Q W Q / ",
"/ / / / / Q Z v h > .   * c f f d d $   X > z w t W Q W Q W W Q ",
"W Q Q Q W W ^ k z &     $ z d 8 x d @   O > H 8 y ) +.+./ ! Q W ",
"W W W W Q / %.r 5 1 X . * , f k 1 8 ;   O = 8 g &.@.+.! ) / W W ",
"W W g.Q +.j.m.*.c < e p _ X.c 4 U X._ p 2 , R *.b.d.Q ) j.f.W W ",
"! ! G.W @.n.,.9.{ 8 ] w.-.v.D 6 y.q.-.0.T 8 l.,.,.m.( e.B.>.( ! ",
"@.#.F.r.s.l.m ;.7.O.0.2.B 5.3. .v.:.B 8.z.| z.J M b.u.d.B.P $.) ",
"@.) O.p.p.] 6 b <.O.<.D < P O.O.3.v 4 ' 5...>.9 g o.a.p...F @.@.",
") ! a a a a 9 g j v v a 7 d z S l a 9 g j v h 7 9 a a a a A +.) ",
"! / 4 a 4 7 l 7 4 a 4 8 N 6 4 5 - d x 6 4 a < h h 6 7 5 6 v / ! ",
"W W h g g h g h h g h h d 3 % @ # , h j h a j g d h f g j A Q Q ",
"Q ! g 9 d g d d f d d h q #       + 1 z g g f 9 d f d 0 d v W W ",
") $.9 h d 9 h 9 9 h d d < o       X : h w l 8 f h 8 f f 8 c W ! ",
"+.+.z 7 g h 0 h h 0 h C #           : G h 6 x 0 0 z d w z A Q +.",
"+.+.w h g f h g d h h h : .         & k h h 0 h h d h g g A / +.",
"+.+.w f g w g f d f g h & .         & h d f w h f d g g 0 v +.+.",
"@.+.h 9 g f 9 f h 8 h z $ .         ; x f 8 h 0 0 g 0 7 h A +.@.",
") ! 9 h g g h g d h f h = .       . & z f h 0 g h 0 g f 0 v ( +.",
"! ! g h g 9 h g g h g h : .       . & h f l 0 f h g h h 0 A ! ! ",
"! +.z 9 h h 7 h h 0 z x #           : G h 8 x w 0 z g w z A ! ! ",
") +.9 h f 9 f g g g g h : .       . & h g h 0 g f w g g w A ! ! "
};
