/* XPM */
static char *f01a52b5f08a4c6cddded891fade396bIyacztS9ddI9nB8f[] = {
/* columns rows colors chars-per-pixel */
"32 32 202 2 ",
"   c #010100",
".  c #0C0605",
"X  c #0D0A05",
"o  c #0E0D0A",
"O  c #180808",
"+  c #1A1614",
"@  c #1C1C1C",
"#  c #28000A",
"$  c #231404",
"%  c #2F280C",
"&  c #392B0C",
"*  c #26201B",
"=  c #372419",
"-  c #282523",
";  c #3A312B",
":  c #373836",
">  c #5B0000",
",  c #5F1E0F",
"<  c #57310C",
"1  c #6C3106",
"2  c #6D1625",
"3  c #4F2C22",
"4  c #4A382B",
"5  c #463D32",
"6  c #673726",
"7  c #6F4312",
"8  c #754911",
"9  c #626C0C",
"0  c #484224",
"q  c #724F38",
"w  c #785636",
"e  c #052E7F",
"r  c #13297E",
"t  c #1C377A",
"y  c #565453",
"u  c #6D564C",
"i  c #745A47",
"p  c #8C061C",
"a  c #931311",
"s  c #A10304",
"d  c #AC0002",
"f  c #AA000D",
"g  c #AF050E",
"h  c #B20015",
"j  c #B2051B",
"k  c #A61617",
"l  c #A41D19",
"z  c #972E17",
"x  c #B0271C",
"c  c #980C2F",
"v  c #990B32",
"b  c #AA032F",
"n  c #AC1C21",
"m  c #9B3D21",
"M  c #B02A2B",
"N  c #A53C29",
"B  c #B72C39",
"V  c #BA3A3C",
"C  c #C5001E",
"Z  c #C1182A",
"A  c #C80437",
"S  c #D2013A",
"D  c #C31B3C",
"F  c #C0222C",
"G  c #844509",
"H  c #914B00",
"J  c #924F1D",
"K  c #875816",
"L  c #925015",
"P  c #8D651A",
"I  c #9E631A",
"U  c #9D482C",
"Y  c #845227",
"T  c #865328",
"R  c #89562B",
"E  c #8E592D",
"W  c #905B2F",
"Q  c #8C5B31",
"!  c #8A5C38",
"~  c #985736",
"^  c #925D31",
"/  c #AB533E",
"(  c #996925",
")  c #8D633C",
"_  c #966135",
"`  c #986337",
"'  c #996438",
"]  c #966A3B",
"[  c #9C7438",
"{  c #B1772E",
"}  c #A2603F",
"|  c #B26E32",
" . c #CA2747",
".. c #C42B4A",
"X. c #C5304E",
"o. c #D62F52",
"O. c #E3325C",
"+. c #9B4A52",
"@. c #B34842",
"#. c #A85C48",
"$. c #926641",
"%. c #9A6942",
"&. c #966948",
"*. c #996F4B",
"=. c #9D7249",
"-. c #8E6D51",
";. c #9C7658",
":. c #A16446",
">. c #A67849",
",. c #B6714D",
"<. c #A66A56",
"1. c #AA725A",
"2. c #B67759",
"3. c #927663",
"4. c #917A69",
"5. c #CA4847",
"6. c #C44657",
"7. c #CA5265",
"8. c #B48916",
"9. c #8A8D37",
"0. c #A29C29",
"q. c #B4AC2C",
"w. c #DA9831",
"e. c #D6B93E",
"r. c #AF884E",
"t. c #A78356",
"y. c #968479",
"u. c #B09178",
"i. c #ADA869",
"p. c #C68657",
"a. c #ED955A",
"s. c #C7896A",
"d. c #D48C69",
"f. c #D88B6E",
"g. c #D49569",
"h. c #EA9778",
"j. c #F29A71",
"k. c #FFFF65",
"l. c #1D3F90",
"z. c #233586",
"x. c #264482",
"c. c #0042AB",
"v. c #1F53A1",
"b. c #0248B4",
"n. c #1E61A9",
"m. c #555B80",
"M. c #556280",
"N. c #697895",
"B. c #5A77A1",
"V. c #0969CA",
"C. c #1070CD",
"Z. c #006DD8",
"A. c #007AD7",
"S. c #0073DB",
"D. c #2A87BA",
"F. c #7B92AF",
"G. c #3795DA",
"H. c #008BE7",
"J. c #0D95EB",
"K. c #369FE5",
"L. c #2AA7F0",
"P. c #418DD3",
"I. c #7DBFCB",
"U. c #57C6F7",
"Y. c #79D2F8",
"T. c #83888C",
"R. c #BFAA86",
"E. c #9CA7B8",
"W. c #A1A9AC",
"Q. c #CB9182",
"!. c #F49681",
"~. c #C5AC99",
"^. c #D8AC95",
"/. c #C4B695",
"(. c #EFA082",
"). c #FCA886",
"_. c #FFAD90",
"`. c #EDB395",
"'. c #FFB392",
"]. c #CAB3A3",
"[. c #C9C8A2",
"{. c #DAC9B8",
"}. c #FFC1A1",
"|. c #E6C9B7",
" X c #FFD2B5",
".X c #FFDCBD",
"XX c #93CBCF",
"oX c #93C6D8",
"OX c #BEC3C6",
"+X c #84E2FF",
"@X c #92EEFF",
"#X c #9FF2FF",
"$X c #D8D8D7",
"%X c #E2DACB",
"&X c #DFE0CA",
"*X c #FFE6D6",
"=X c #DDE2E3",
"-X c #EEEDED",
";X c #FFEEE4",
":X c #EFEFF0",
">X c #F7FAFF",
",X c #FCFEFF",
/* pixels */
"_ _ E T T E ^ _ _ _ } M l l x l #.T T R ` ` ^ E ^ ^ W R T E W E ",
"_ _ E T T E _ _ _ } @.B V w./ B @./ #.E ^ ` W E W ^ ^ E R E ^ W ",
"_ _ R T T E ` _ _ ~ d o.).k.e.5.D n n #.' ' W E ^ ' ' ^ T R W E ",
"W ^ R Y Y E ` ` &.6 > 2 -.9.9 , v O. .n #.' E _ ` ^ ` ^ T T E ^ ",
"R R T R R Y W w 4               # p c  .M z ~ ' _ _ ' ^ T T T R ",
"T T R W ` E Y =                     # v ..f 1.%._ _ _ _ R T T T ",
"W W W _ ' _ Y 4 o   . @ @ + @ @ + o   # b S k U ^ ' ' _ R Y R E ",
"_ ' ` _ ` W W R u o : $X$X(.{.=X|.:.  # b S f m _ _ _ _ E T E ^ ",
"` _ _ _ ` ^ W R Q &.u.$Xy ^.u W.*Xh.<.. O Q.!.,.' ^ _ _ R T R ` ",
"_ _ _ _ W E W E ] >.{.OX+ ~.; T.;X}.s..   R.g.p.s._ _ _ E R W W ",
"W W W W E W W W ] ( *X$Xy.^.1.].;X^.3     Q.I | h._ _ _ R T W W ",
"W W W W W W W W [ {  X X.X'.j.t.~.{.:   4 (.a.d.2._ E R R T R W ",
"R W W W W R T w w 7 1.<.<.1.8   - ~.^.q h.d.<.! T T R T R T T R ",
"R R R R R T R i @   . . . .   + - u ).(.d.= * q W _ _ _ W W T T ",
"T Y T Y T ^ ' _ i o   . . o . 4.{.`.).f.=   w ' ` ` _ W W E T T ",
"T T T T R ^ _ _ _ ) K f.f.f.f.(.'._.j.8 o -.R W W R T R T T T T ",
"W R R T T R W W R Y >.I I I x x F  .Z z &.T T Y T T T R T E E E ",
"_ ' _ R T T T R T =.t./././.J s h j ..B N ! T E E E ^ E ^ ^ ^ ^ ",
"` _ W W R T T T *.r./.>X,X,X[./ x B 7.6.j #.%.^ ^ ^ E ^ ^ ' ' ' ",
"W W W W R T T T ( [ ,X:X-X-X,Xi.L 7.6...A d 1.^ ' ^ E ^ ' ` ` ^ ",
"W W W R T T T T *.=.{.>X,X,X&X>.N 6...A C p ;.^ ^ W E ^ ^ ^ W W ",
"Y T T Y T W R T Q >.r.&X%X&X[ k D X.S C p r 4.T R R R T T R R T ",
"T W W W _ _ R T W W ;.P K P a s j A C p z.c.3.R E E W E T T T T ",
"_ ` ' ' ' ` R T R i v.D.I.XXXX+.s g p l.A.b.3.E W W ^ ' ^ T T W ",
"_ _ _ _ ` ^ R T Q u b.J.+X#X@XoXE.F.v.A.H.b.3.E E ^ ` ' ^ Y R ^ ",
"_ _ _ ` W W R T R $.N.C.K.P.Y.#XY.L.H.H.n.M.) R E ^ ` ` E T ^ ' ",
"_ _ ` W W W T T T T ;.c.V.b.G.U.L.H.H.A.b.u T R R E E R T T ^ ` ",
"_ _ W W W R T T R R &.B.C.b.V.Z.S.A.S.C.B.$.E W E W T Y T E ^ ' ",
"_ E E E W T T W ^ E _ *.x.t e e x.x.t m.&.` ^ E E E E T T E ^ ^ ",
"R E W W W Y W ^ E _ _ ;.0 < % < G 8 1 ! %.' ^ E ^ ^ ^ E T W W E ",
"W _ W W R R W W _ _ ;.0 q.& 0.8.z H 1 5 $.' ^ E ' ` ^ T T E E E ",
"_ ` W R T E W ^ ] _ >.X % + % % $ $ O 5 %.^ ^ ^ ' ^ ^ E T W E W "
};
