/* XPM */
static char *_e3ef57d422d474bf300c027159e218fc8M77xXcSoKL8UI1[] = {
/* columns rows colors chars-per-pixel */
"32 32 199 2 ",
"   c None",
".  c #020100",
"X  c #0C0605",
"o  c #0A0A06",
"O  c #0B0B0A",
"+  c #190802",
"@  c #151514",
"#  c #1B1B1C",
"$  c #1A1615",
"%  c #2D000C",
"&  c #240109",
"*  c #341F18",
"=  c #262409",
"-  c #392B0C",
";  c #37221A",
":  c #262524",
">  c #3B352D",
",  c #373535",
"<  c #5B0000",
"1  c #5F1E0F",
"2  c #4B1F1E",
"3  c #57310C",
"4  c #642B00",
"5  c #73370B",
"6  c #6D1625",
"7  c #4F2C22",
"8  c #403F22",
"9  c #53362B",
"0  c #6F4312",
"q  c #754911",
"w  c #626C0C",
"e  c #6F5E3B",
"r  c #704A3C",
"t  c #052E7F",
"y  c #1C377A",
"u  c #13297E",
"i  c #585756",
"p  c #69534A",
"a  c #980000",
"s  c #8C061C",
"d  c #90081E",
"f  c #951D03",
"g  c #A10304",
"h  c #AC0002",
"j  c #AA000D",
"k  c #A90B13",
"l  c #B2051B",
"z  c #B20015",
"x  c #A81517",
"c  c #B10208",
"v  c #9B2B16",
"b  c #B0271C",
"n  c #800821",
"m  c #980C2F",
"M  c #990B32",
"N  c #BF0021",
"B  c #AD1C21",
"V  c #AA032F",
"C  c #B52629",
"Z  c #B82B39",
"A  c #B0332E",
"S  c #C5001E",
"D  c #C80437",
"F  c #D2013A",
"G  c #C31B3C",
"H  c #C1182A",
"J  c #C0222C",
"K  c #844509",
"L  c #914B00",
"P  c #924F1D",
"I  c #875816",
"U  c #925015",
"Y  c #8D651A",
"T  c #9E631A",
"R  c #8B5E3C",
"E  c #AA593C",
"W  c #9A6C25",
"Q  c #9C7438",
"!  c #B26E32",
"~  c #B1772E",
"^  c #C75538",
"/  c #BB3B41",
"(  c #C42B4A",
")  c #CA2747",
"_  c #C5304E",
"`  c #D62F52",
"'  c #E3325C",
"]  c #9B4A52",
"[  c #BA4647",
"{  c #BF5B5B",
"}  c #917256",
"|  c #A66A56",
" . c #AA705C",
".. c #A66C4B",
"X. c #907B6C",
"o. c #AE7F61",
"O. c #C44657",
"+. c #CA4847",
"@. c #CA5265",
"#. c #C26564",
"$. c #B48916",
"%. c #8A8D37",
"&. c #A29C29",
"*. c #B4AD2C",
"=. c #DA9831",
"-. c #D6B93E",
";. c #B18C50",
":. c #A88954",
">. c #968479",
",. c #B09564",
"<. c #ADA869",
"1. c #E29055",
"2. c #F89A5F",
"3. c #CA896D",
"4. c #D88B6E",
"5. c #D48B6E",
"6. c #C79C65",
"7. c #D39061",
"8. c #DB8E71",
"9. c #ED9B78",
"0. c #F29A71",
"q. c #FFFF65",
"w. c #0D3580",
"e. c #1D3F90",
"r. c #233586",
"t. c #003FB0",
"y. c #1E4493",
"u. c #224381",
"i. c #0042AB",
"p. c #104EAF",
"a. c #0148B5",
"s. c #0E52B1",
"d. c #1E61A9",
"f. c #346DBC",
"g. c #4B5D92",
"h. c #0868C9",
"j. c #016DD8",
"k. c #007AD7",
"l. c #0071DD",
"z. c #0674D6",
"x. c #2A87BA",
"c. c #7B92AF",
"v. c #0082DF",
"b. c #3795DA",
"n. c #008BE7",
"m. c #0092E8",
"M. c #1998ED",
"N. c #369FE5",
"B. c #2AA7F0",
"V. c #5788CA",
"C. c #418DD3",
"Z. c #4981C9",
"A. c #7DBFCB",
"S. c #57C6F7",
"D. c #7FC9F1",
"F. c #73DBFF",
"G. c #83888C",
"H. c #BFAA86",
"J. c #9CA7B8",
"K. c #A1A9AC",
"L. c #C29281",
"P. c #DD9B81",
"I. c #C38685",
"U. c #F49681",
"Y. c #C5AC99",
"T. c #D8AC95",
"R. c #C4B695",
"E. c #EFA082",
"W. c #FCA686",
"Q. c #F5B28F",
"!. c #FFAD90",
"~. c #FFB392",
"^. c #E4B39B",
"/. c #C2B3A1",
"(. c #D1B2A5",
"). c #D9C7B6",
"_. c #C9C8A2",
"`. c #FFC1A1",
"'. c #E6C9B7",
"]. c #FFD2B5",
"[. c #FFDCBD",
"{. c #93CBCF",
"}. c #93C6D8",
"|. c #BEC3C6",
" X c #84E2FF",
".X c #92EEFF",
"XX c #9FF2FF",
"oX c #D8D4D1",
"OX c #E2DACB",
"+X c #E0DCDA",
"@X c #DFE0CA",
"#X c #FFE6D6",
"$X c #DEE4E5",
"%X c #EEEDED",
"&X c #FFEEE4",
"*X c #EFEFF0",
"=X c #FCFEFE",
"-X c #F7FAFF",
";X c #FFF5E4",
/* pixels */
"                              #.x x x x C                       ",
"                          #.[ _ Z ^ =.A Z [                     ",
"                          x B G +.-.q.~.` c                     ",
"                      { B ) ' M 1 w %.} 6 < 2                   ",
"                    a C ) m s % . . . . . . . :                 ",
"                    l ( m & . . . . . . . . . . @               ",
"                  k F V % . X @ # # $ @ # o . O :               ",
"                  j F V + . ..'.$X).8.%X$X, .                   ",
"                  9.I.% X | 0.#XK.p T.i oX                      ",
"                7.6./.. X 3.`.&Xc.> Y.# |.=X6.                  ",
"              W.! W L.. . 7 T.;XT...P.>.oX#XW                   ",
"                0.1.9.9 . > ).Y.:.2.~.#X].].~                   ",
"                  | 3.9.r T.Y.: . 0  . .|  .0 e                 ",
"                  @ * 5.W.!.p : @ X X X X X X @ i               ",
"                    . ; 5.9.^.'.X.X X o O . O                   ",
"                      O q 0.~.~.E.4.4.8.4.I                     ",
"                        v H ) J B b T T T                       ",
"                      C Z ( l z g P R.R.R.:.                    ",
"                    { B +.@.Z x E _.=X=X-XR.,.                  ",
"                    h D ( O.@.I <.=X%X*X*X=XQ W                 ",
"                    n S D ) O.A ..@X-X-X-X).:.                  ",
"                    u s S D _ G x Q OX@XOX;.                    ",
"                    i.r.s S D l g f Y Y Y                       ",
"                    a.k.e.m c g ] }.{.A.x.s.                    ",
"                    a.n.k.d.c.J.}..XXX XM.a.                    ",
"                    f.h.v.n.B.F.XX}.C.N.h.V.                    ",
"                      p.k.m.k.B.S.b.i.z.i.                      ",
"                      V.z.l.l.l.l.h.a.z.Z.                      ",
"                        g.y u.u.w.t y y.                        ",
"                        R 5 q K 3 * 3 >                         ",
"                        8 4 L K $.&.- *.8                       ",
"                        , X + + = = o = .                       "
};
