/* XPM */
static char *result[] = {
/* columns rows colors chars-per-pixel */
"32 32 199 2 ",
"   c #020100",
".  c #0C0605",
"X  c #0A0A06",
"o  c #0B0B0A",
"O  c #190802",
"+  c #151514",
"@  c #1B1B1C",
"#  c #1A1615",
"$  c #2D000C",
"%  c #240109",
"&  c #341F18",
"*  c #262409",
"=  c #392B0C",
"-  c #37221A",
";  c #262524",
":  c #3B352D",
">  c #373535",
",  c #5B0000",
"<  c #5F1E0F",
"1  c #4B1F1E",
"2  c #57310C",
"3  c #642B00",
"4  c #73370B",
"5  c #6D1625",
"6  c #4F2C22",
"7  c #403F22",
"8  c #53362B",
"9  c #6F4312",
"0  c #754911",
"q  c #626C0C",
"w  c #6F5E3B",
"e  c #704A3C",
"r  c #052E7F",
"t  c #1C377A",
"y  c #13297E",
"u  c #585756",
"i  c #69534A",
"p  c #980000",
"a  c #8C061C",
"s  c #90081E",
"d  c #951D03",
"f  c #A10304",
"g  c #AC0002",
"h  c #AA000D",
"j  c #A90B13",
"k  c #B2051B",
"l  c #B20015",
"z  c #A81517",
"x  c #B10208",
"c  c #9B2B16",
"v  c #B0271C",
"b  c #800821",
"n  c #980C2F",
"m  c #990B32",
"M  c #BF0021",
"N  c #AD1C21",
"B  c #AA032F",
"V  c #B52629",
"C  c #B82B39",
"Z  c #B0332E",
"A  c #C5001E",
"S  c #C80437",
"D  c #D2013A",
"F  c #C31B3C",
"G  c #C1182A",
"H  c #C0222C",
"J  c #844509",
"K  c #914B00",
"L  c #924F1D",
"P  c #875816",
"I  c #925015",
"U  c #8D651A",
"Y  c #9E631A",
"T  c #8B5E3C",
"R  c #AA593C",
"E  c #9A6C25",
"W  c #9C7438",
"Q  c #B26E32",
"!  c #B1772E",
"~  c #C75538",
"^  c #BB3B41",
"/  c #C42B4A",
"(  c #CA2747",
")  c #C5304E",
"_  c #D62F52",
"`  c #E3325C",
"'  c #9B4A52",
"]  c #BA4647",
"[  c #BF5B5B",
"{  c #917256",
"}  c #A66A56",
"|  c #AA705C",
" . c #A66C4B",
".. c #907B6C",
"X. c #AE7F61",
"o. c #C44657",
"O. c #CA4847",
"+. c #CA5265",
"@. c #C26564",
"#. c #B48916",
"$. c #8A8D37",
"%. c #A29C29",
"&. c #B4AD2C",
"*. c #DA9831",
"=. c #D6B93E",
"-. c #B18C50",
";. c #A88954",
":. c #968479",
">. c #B09564",
",. c #ADA869",
"<. c #E29055",
"1. c #F89A5F",
"2. c #CA896D",
"3. c #D88B6E",
"4. c #D48B6E",
"5. c #C79C65",
"6. c #D39061",
"7. c #DB8E71",
"8. c #ED9B78",
"9. c #F29A71",
"0. c #FFFF65",
"q. c #0D3580",
"w. c #1D3F90",
"e. c #233586",
"r. c #003FB0",
"t. c #1E4493",
"y. c #224381",
"u. c #0042AB",
"i. c #104EAF",
"p. c #0148B5",
"a. c #0E52B1",
"s. c #1E61A9",
"d. c #346DBC",
"f. c #4B5D92",
"g. c #0868C9",
"h. c #016DD8",
"j. c #007AD7",
"k. c #0071DD",
"l. c #0674D6",
"z. c #2A87BA",
"x. c #7B92AF",
"c. c #0082DF",
"v. c #3795DA",
"b. c #008BE7",
"n. c #0092E8",
"m. c #1998ED",
"M. c #369FE5",
"N. c #2AA7F0",
"B. c #5788CA",
"V. c #418DD3",
"C. c #4981C9",
"Z. c #7DBFCB",
"A. c #57C6F7",
"S. c #7FC9F1",
"D. c #73DBFF",
"F. c #83888C",
"G. c #BFAA86",
"H. c #9CA7B8",
"J. c #A1A9AC",
"K. c #C29281",
"L. c #DD9B81",
"P. c #C38685",
"I. c #F49681",
"U. c #C5AC99",
"Y. c #D8AC95",
"T. c #C4B695",
"R. c #EFA082",
"E. c #FCA686",
"W. c #F5B28F",
"Q. c #FFAD90",
"!. c #FFB392",
"~. c #E4B39B",
"^. c #C2B3A1",
"/. c #D1B2A5",
"(. c #D9C7B6",
"). c #C9C8A2",
"_. c #FFC1A1",
"`. c #E6C9B7",
"'. c #FFD2B5",
"]. c #FFDCBD",
"[. c #93CBCF",
"{. c #93C6D8",
"}. c #BEC3C6",
"|. c #84E2FF",
" X c #92EEFF",
".X c #9FF2FF",
"XX c #D8D4D1",
"oX c #E2DACB",
"OX c #E0DCDA",
"+X c #DFE0CA",
"@X c #FFE6D6",
"#X c #DEE4E5",
"$X c #EEEDED",
"%X c #FFEEE4",
"&X c #EFEFF0",
"*X c #FCFEFE",
"=X c #F7FAFF",
"-X c #FFF5E4",
";X c None",
/* pixels */
";X;X;X;X;X;X;X;X;X;X;XV j z z z @.;X;X;X;X;X;X;X;X;X;X;X;X;X;X;X",
";X;X;X;X;X;X;X;X;X;X] C C *.R C ) ] @.;X;X;X;X;X;X;X;X;X;X;X;X;X",
";X;X;X;X;X;X;X;X;X;Xx _ W.0.=.O.F N N ;X;X;X;X;X;X;X;X;X;X;X;X;X",
";X;X;X;X;X;X;X;X;X6 , 5 { $.q < m ` ( v [ ;X;X;X;X;X;X;X;X;X;X;X",
";X;X;X;X;X;X;X;X;               $ a n ( V p ;X;X;X;X;X;X;X;X;X;X",
";X;X;X;X;X;X;X+                     % m / l ;X;X;X;X;X;X;X;X;X;X",
";X;X;X;X;X;X;X; o   o @ @ # + # # o   $ B D z ;X;X;X;X;X;X;X;X;X",
";X;X;X;X;X;X;X;X;Xo > #XOX7.(.+X`. .  O B D h ;X;X;X;X;X;X;X;X;X",
";X;X;X;X;X;X;X;X;X;X;XXXu Y.i J.@X8.} . % P.I.;X;X;X;X;X;X;X;X;X",
";X;X;X;X;X;X;X;X;X5.*X}.@ U.: x.%X_.2..   T.5.6.;X;X;X;X;X;X;X;X",
";X;X;X;X;X;X;X;X;XE @XXX:.L.} /.%XY.6     K.E Q E.;X;X;X;X;X;X;X",
";X;X;X;X;X;X;X;X;X! '.'.@X!.1.X.U.(.>   8 8.<.8.;X;X;X;X;X;X;X;X",
";X;X;X;X;X;X;X;Xw 9 | } } | 0   ; U.Y.e 8.2.} ;X;X;X;X;X;X;X;X;X",
";X;X;X;X;X;X;Xu + . . . . . . + ; i E.E.4.& + ;X;X;X;X;X;X;X;X;X",
";X;X;X;X;X;X;X;X;Xo   o . . . ..(.~.E.3.-   ;X;X;X;X;X;X;X;X;X;X",
";X;X;X;X;X;X;X;X;X;XP 3.7.7.3.R.!.Q.1.0 X ;X;X;X;X;X;X;X;X;X;X;X",
";X;X;X;X;X;X;X;X;X;X;XI Y Y v v H _ G c ;X;X;X;X;X;X;X;X;X;X;X;X",
";X;X;X;X;X;X;X;X;X;X>.T.T.T.L f l k / C V ;X;X;X;X;X;X;X;X;X;X;X",
";X;X;X;X;X;X;X;X;X>.T.*X*X*X).R v C +.o.k @.;X;X;X;X;X;X;X;X;X;X",
";X;X;X;X;X;X;X;XE W *X&X$X$X*X,.I o.o./ D g ;X;X;X;X;X;X;X;X;X;X",
";X;X;X;X;X;X;X;X;X;.(.=X=X*X+X .Z [ ( S A 5 ;X;X;X;X;X;X;X;X;X;X",
";X;X;X;X;X;X;X;X;X;X-.oXoXoXW z C / S A a y ;X;X;X;X;X;X;X;X;X;X",
";X;X;X;X;X;X;X;X;X;X;XU P U d f k S A a t r.;X;X;X;X;X;X;X;X;X;X",
";X;X;X;X;X;X;X;X;X;Xa.z.Z.[.{.' f x n w.l.p.;X;X;X;X;X;X;X;X;X;X",
";X;X;X;X;X;X;X;X;X;Xp.m.|..X X{.H.x.s.j.b.p.;X;X;X;X;X;X;X;X;X;X",
";X;X;X;X;X;X;X;X;X;XB.g.M.V.S..XD.N.n.c.g.d.;X;X;X;X;X;X;X;X;X;X",
";X;X;X;X;X;X;X;X;X;X;Xu.l.u.v.A.N.c.b.j.i.;X;X;X;X;X;X;X;X;X;X;X",
";X;X;X;X;X;X;X;X;X;X;XC.l.p.g.k.h.k.k.l.B.;X;X;X;X;X;X;X;X;X;X;X",
";X;X;X;X;X;X;X;X;X;X;X;Xt.t r r y.y.t f.;X;X;X;X;X;X;X;X;X;X;X;X",
";X;X;X;X;X;X;X;X;X;X;X;X7 2 = 2 J J 4 { ;X;X;X;X;X;X;X;X;X;X;X;X",
";X;X;X;X;X;X;X;X;X;X;X7 &.= %.#.c K 3 : ;X;X;X;X;X;X;X;X;X;X;X;X",
";X;X;X;X;X;X;X;X;X;X;XX * X * * X O   > ;X;X;X;X;X;X;X;X;X;X;X;X"
};
