/* XPM */
static char *_50bd152b8b645f6eb765522448ec320V1vhPcll922cJe06[] = {
/* columns rows colors chars-per-pixel */
"32 32 155 2 ",
"   c #010000",
".  c #020202",
"X  c #070301",
"o  c #050403",
"O  c #000005",
"+  c #070305",
"@  c #080300",
"#  c #090401",
"$  c #0C0501",
"%  c #080706",
"&  c #080806",
"*  c #0F0A06",
"=  c #0C0A08",
"-  c #110701",
";  c #140700",
":  c #150901",
">  c #1E0C02",
",  c #1E0D03",
"<  c #180E07",
"1  c #100E0C",
"2  c #1E1A17",
"3  c #230E02",
"4  c #240F03",
"5  c #271002",
"6  c #281103",
"7  c #221D1D",
"8  c #26211C",
"9  c #2A2621",
"0  c #302A27",
"q  c #B34A0D",
"w  c #BA4C0D",
"e  c #BF4F0E",
"r  c #CB4D04",
"t  c #CB4E05",
"y  c #D24A00",
"u  c #C6520E",
"i  c #CA540E",
"p  c #CE550E",
"a  c #D65104",
"s  c #DB5102",
"d  c #DB5305",
"f  c #D4580F",
"g  c #D5580F",
"h  c #DC5B0E",
"j  c #DC5B0F",
"k  c #DD5B0F",
"l  c #CC5611",
"z  c #CC5713",
"x  c #D65810",
"c  c #D65B14",
"v  c #DF5C10",
"b  c #E35301",
"n  c #E35402",
"m  c #E35706",
"M  c #E95501",
"N  c #EE5802",
"B  c #E45908",
"V  c #E45A0A",
"C  c #E35E0F",
"Z  c #E45C0E",
"A  c #F65A01",
"S  c #FB5B00",
"D  c #E05C10",
"F  c #E05D10",
"G  c #E45E10",
"H  c #E55F10",
"J  c #DD6218",
"K  c #E46013",
"L  c #E46215",
"P  c #E66316",
"I  c #EA6010",
"U  c #EC6111",
"Y  c #EE6210",
"T  c #E5651A",
"R  c #E5671B",
"E  c #E5691F",
"W  c #EA681D",
"Q  c #F36310",
"!  c #F26411",
"~  c #F76611",
"^  c #FA6711",
"/  c #F36817",
"(  c #F46816",
")  c #FB6812",
"_  c #FD6912",
"`  c #FF6C12",
"'  c #FF6D12",
"]  c #F46C1B",
"[  c #F56D1D",
"{  c #FF7013",
"}  c #E56920",
"|  c #E56B22",
" . c #E66D25",
".. c #EB6C21",
"X. c #E26F2A",
"o. c #E4702A",
"O. c #E6702A",
"+. c #E6722B",
"@. c #F67123",
"#. c #F87222",
"$. c #FF7720",
"%. c #F3752A",
"&. c #E77835",
"*. c #D6B090",
"=. c #D8B79A",
"-. c #D7BA9E",
";. c #DEBD9E",
":. c #E0B794",
">. c #EEBC94",
",. c #E0BC9B",
"<. c #EFC29D",
"1. c #F9C497",
"2. c #D6C0A7",
"3. c #DEC0A3",
"4. c #D8C1A7",
"5. c #DEC2A6",
"6. c #D8C4AB",
"7. c #DAC4AA",
"8. c #DDC4A9",
"9. c #DFC9AF",
"0. c #E2C2A3",
"q. c #EFC5A0",
"w. c #E9C6A6",
"e. c #EFC7A4",
"r. c #EFC9A6",
"t. c #E8C9AA",
"y. c #E9CBAE",
"u. c #F0CAA6",
"i. c #FBCCA2",
"p. c #F0CEAD",
"a. c #F1CFAE",
"s. c #E4CBB0",
"d. c #E9D1B5",
"f. c #EAD3B8",
"g. c #F0D0B0",
"h. c #F6D3B1",
"j. c #F1D3B4",
"k. c #F1D4B5",
"l. c #F6D5B5",
"z. c #F1D7BA",
"x. c #F7DBB9",
"c. c #F1D8BC",
"v. c #F1DBBF",
"b. c #F2DBBF",
"n. c #F7DCBF",
"m. c #FCDAB9",
"M. c #FEDDB8",
"N. c #FFE1BD",
"B. c #FFE2BF",
"V. c #F1DEC4",
"C. c #FFE2C1",
"Z. c #FFE6C4",
"A. c #F1E0C8",
"S. c #FFEDC9",
"D. c #FFF3CC",
/* pixels */
"m n p.v.z.z.z.z.z.z.z.z.z.z.z.z.z.n.% @ t H q.c.j.c.z.z.z.V./ Q ",
"K C e.p.p.p.p.p.p.p.p.p.p.p.p.p.p.h.% @ l T >.p.p.p.p.p.p.z.J G ",
"q.q.O.} } E E E } } } } } } } } E ..X % *.<.&.} } } } } } @.> ; ",
"v.V.Z b b b b b b b b b b b b b b M X % 6.g.} n n n b b b A @   ",
"g.j.T G G G G G G G G G G G G G G H @ % -.r.O.G G G G G G ~ X   ",
"g.j.T G G G G G G G G G G G G G H H @ % -.r.O.G G G G G G ^ X   ",
"g.j.T G G G G G G G G G G G G G H Y @ % -.u.%.Q K Z G G Z ~ X   ",
"g.j.T G G G G G G G G G G G G G H H @ % -.r.X.D Z K G G G ~ X   ",
"g.j.T G G G G G G G G G G G G G G I X % 4.y.0 3 p ~ Q Q ! ` @   ",
"g.j.T G G G G G G G G G G G G G G I X % =.0.8 $ w v D k D Q $   ",
"g.j.T G G G G G G G G G G G G G G I X @ l c 4   X X X X X   x v ",
"g.j.T G G G G G G G G G G G G G G I @ # t a 6 o       O O   U ~ ",
"g.j.T G G G G G G G G G G G G G G I X % *.q.8.7.7.7.7.7.7.f.< ; ",
"g.j.T G G G G G G G G G G G G G G I X & 7.v.N.N.N.N.N.N.N.D.&   ",
"g.j.T G G G G G G G G G G G G G Z I X % -.r.&.E E E E E } #.@   ",
"g.j.T G G G G G G G G G G G G G G I X % -.r.E b b b b b b A @   ",
"p.k.R Z C H Z C G G G G C H Z K G I X & -.u.O.K Z H G G G ~ #   ",
"p.j.R K G Z K K G G G G K Z K D G I X & =.u.O.Z K Z C H G ~ o   ",
"N.C.] ! K Z Z H G G G G Z H G Z ~ ) @ % 7.f.O.Z Z H H C Z ~ @   ",
"t.y.J k Z K C K G G G G G C C K k D * 1 =.<.O.K K Z C H K ~ @   ",
"      o g ! ! ! I Z H C Z Z K _ X X -.;.O.R K Z Z K Z K Z ~ @   ",
"    O + e v k j D K G G C K Z _     x.M.K m Z C H Z K Z K ~ X   ",
"3.3.s.7.2     # u ! ~ ~ ! ! ~ {     d.k.} K Z K H C Z G Z ~ @   ",
"C.N.M.l.7 O O + q k k k j j k ! O   w.r.} K K Z G G K Z K ~ X   ",
"p.f. .} ,.s.9.2.9           -   t.5.E R K Z K Z G G K Z K ~ o   ",
"p.k.Z B i.M.M.k.0   O O O O     S.Z.B n Z K Z G G G Z K Z ) @   ",
"a.k.R Z R R R } :.s.9.9.9.v.&   M.k.L K K Z G Z G G G D ! ` #   ",
"j.j.R Z m n n V 1.M.N.M.M.D.=   m.k.L Z Z K C K G G G G k U @   ",
"v.v.] ~ ~ Q ~ ! ] [ [ [ [ $.#   m.d.( ) ! ~ ! ! ~ ! ^ _ 6 -     ",
"p.y.J k k h k h d s s s s N -   m.k.k h k k k k h h k K :   # o ",
"R W , - - - $ - - - - - -   p y z.l.< - - - - - # - - -     i g ",
"b M $                       U S f.l.&                       Q ^ "
};
