/* XPM */
static char *c62ef2bb6ef541b5d1d933a2b5286a00ZR24UR0BhrgEfylH[] = {
/* columns rows colors chars-per-pixel */
"32 32 168 2 ",
"   c #030202",
".  c #0B0602",
"X  c #0F0906",
"o  c #00000C",
"O  c #110A05",
"+  c #1D1B04",
"@  c #070C14",
"#  c #261903",
"$  c #321D08",
"%  c #24211E",
"&  c #352519",
"*  c #2A2A29",
"=  c #3C342D",
"-  c #573B0B",
";  c #633303",
":  c #6B3000",
">  c #723700",
",  c #4E3D2F",
"<  c #5A4113",
"1  c #534F1E",
"2  c #77470C",
"3  c #785516",
"4  c #58532A",
"5  c #4C4139",
"6  c #5C4A3A",
"7  c #644B20",
"8  c #714925",
"9  c #7E532F",
"0  c #644F3D",
"q  c #765337",
"w  c #7B6137",
"e  c #4D4D50",
"r  c #525455",
"t  c #6A5442",
"y  c #695847",
"u  c #6A5C52",
"i  c #7A6657",
"p  c #796E67",
"a  c #7E746D",
"s  c #6A6C76",
"d  c #6F7175",
"f  c #737275",
"g  c gray47",
"h  c #904D09",
"j  c #9E5101",
"k  c #815B17",
"l  c #B0640A",
"z  c #A3771E",
"x  c #B3751B",
"c  c #845227",
"v  c #865328",
"b  c #89562B",
"n  c #8E592D",
"m  c #905B2F",
"M  c #815631",
"N  c #875A34",
"B  c #8C5B32",
"V  c #925D31",
"C  c #976F25",
"Z  c #8D613D",
"A  c #966135",
"S  c #986337",
"D  c #96643B",
"F  c #996438",
"G  c #D45B00",
"H  c #C56100",
"J  c #D76700",
"K  c #D86A02",
"L  c #DC7004",
"P  c #D7770E",
"I  c #DB7509",
"U  c #E37100",
"Y  c #EE7600",
"T  c #876546",
"R  c #966A47",
"E  c #966F4F",
"W  c #816B55",
"Q  c #8B715C",
"!  c #98775B",
"~  c #867263",
"^  c #957B65",
"/  c #997F69",
"(  c #B38524",
")  c #B38F36",
"_  c #DF8619",
"`  c #E4850F",
"'  c #F98809",
"]  c #E18615",
"[  c #F28810",
"{  c #E1901B",
"}  c #F4961E",
"|  c #E29524",
" . c #E59D2A",
".. c #F19F28",
"X. c #EDA22C",
"o. c #EEAF2D",
"O. c #FDAC23",
"+. c #F5AB2F",
"@. c #FEAC2C",
"#. c #FDB223",
"$. c #FFB02F",
"%. c #F7AE31",
"&. c #FFAE31",
"*. c #EEB031",
"=. c #EDB539",
"-. c #FEB234",
";. c #F2BD36",
":. c #FFBC35",
">. c #FEB439",
",. c #F3BD3A",
"<. c #FEB939",
"1. c #FFC138",
"2. c #FECB3B",
"3. c #F7D03A",
"4. c #FBD93D",
"5. c #87826B",
"6. c #9D826C",
"7. c #968571",
"8. c #A28269",
"9. c #F1AB4A",
"0. c #EEB243",
"q. c #FEB746",
"w. c #FCB64E",
"e. c #FFB948",
"r. c #EDB47D",
"t. c #F2C242",
"y. c #F3C946",
"u. c #F8CD46",
"i. c #FFDB40",
"p. c #F8D64D",
"a. c #F6D453",
"s. c #FDDC55",
"d. c #FEE64F",
"f. c #E2E15A",
"g. c #FEE854",
"h. c #FDE45C",
"j. c #FDE95F",
"k. c #FFFB5C",
"l. c #E1C96B",
"z. c #FEDD68",
"x. c #FFC878",
"c. c #FEED62",
"v. c #FFF165",
"b. c #FFFB67",
"n. c #FFF56A",
"m. c #FFFC69",
"M. c #FFF673",
"N. c #FFF679",
"B. c #BCBD9C",
"V. c #B0AEAD",
"C. c #FBD78F",
"Z. c #F9D897",
"A. c #FDE187",
"S. c #FFFD89",
"D. c #FFE890",
"F. c #FFF99E",
"G. c #FFF5A3",
"H. c #FEE5BB",
"J. c #FFFBB0",
"K. c #FFFFBC",
"L. c #FDE5C1",
"P. c #FDE8C3",
"I. c #FDF6CA",
"U. c #FEF9D6",
"Y. c #FFFFE2",
"T. c #FEFCEA",
"R. c #FEFEF4",
"E. c #FEFFFD",
/* pixels */
"A A n v v n V A S V S V m m b c c v v b V F V n A V n n c m m n ",
"A A n v v n A A S V V m V Q = 5 5 = W B A F B n n m V n v n m n ",
"A A b v c n S A S S m V R y O . . O 6 Z D F V n V S F V v b V n ",
"m V b c c n S S S V B ^   C %.P H L h O ^ A n V S A S V v v n m ",
"b b v b b v n A A D T p * ) 2...` ' l $ i Z D A A A A A b v v b ",
"c c n m S n c b n /   f E.D.d.c.s.<.-.<.3   6.A A A A A b v v v ",
"m m m A F A c c b 7.  d E.D.3.c.s...} O.2   6.A A A A A b c b n ",
"S F S A S A n v B 6.  d E.x.O.h.a.I J Y ;   6.A A A A A n v n V ",
"S A A A S m m V ~ a g B.J.9.` g.j.=.X.} x 3 T q A A A A n v n V ",
"V S A S m n m M   e E.K.4.{ K y.v.m.s.<.:.2.- . A A S A n b n V ",
"m m m m n m n N   r E.Z.] =.t.|  .j.s.-.-.:.< X A F A V n v n m ",
"n n n n m B V N   e E.r.G y.m._ P h.s.-.$.:.< O A V m n b c b m ",
"m m m m m n b v . 4 S.0.J t.v.%.+.j.s.-.&.:.< X b v n b b b c b ",
"b b n b v c b M o 1 k.o.J t.v.<.<.j.s.&.&.:.< X n V A V n n b v ",
"c v v c v V S Z   1 b.*.J t.v.<.>.h.s.&.@.:.< O F S A m n n v v ",
"v c c v b V A Z . 4 b.*.J t.v.<.>.c.s.-.-.:.< O n b v b v v v v ",
"n b b v v b n N   1 b.*.J t.v.>.-.d.p.-.&.:.< X v v v b b b n n ",
"S F A b v v b M   1 b.*.J 1.v.:.q.G.A.-.$.:.< X n n m n m A A A ",
"S A m m b v v 9   4 b.*.J t.v.#.w.T.P.>.@.:.< X V m n V A A A S ",
"m n m m b v v 9   1 m.*.J ,.n.C.L.E.L.>.$.<.< O F A n V F A A A ",
"n m n n v v v 9   1 b.*.J ;.M.U.E.E.H.-.@.<.< X A m n m m m m m ",
"v v c c b n b 9   1 m.2...C.Y.E.T.F.z.<.$.:.- . v b b v v b b b ",
"v n m A S A n 9 % 4 f.y.e.H.E.R.I.h.3.-.X.*.7 & n n n n v v v v ",
"A S S A D S b n 8.7.+ 5.T.R.E.G.a._ I Y 2 # ^ b n m S F m v v n ",
"A A A A A m b v n 8.  s E.T.I.N.3.P L ' -   / n m V S F V c b A ",
"A A A F A n v c b 7.  f E.G.g.n.j.<.@.2.2   ^ b n m S F n c m S ",
"A S A m m n v v v ! , p V.l.i.u.,.@.| ( w 5 E b b n b b c b A A ",
"S A m n m n v v b b b Q   z 2.[ U ' j   Q n n m m m b c v b A A ",
"A n n n m v v m n n A ! t q k > : > 8 0 E F V n n m m b v n m A ",
"n n m m n v m m n A A S D i   @ @ o u b m F m n V V m b v n n n ",
"n A m m b b m n A S A S A n v n V F V v V F m n S S V b v m m n ",
"A A m b v n m m S A A S V n b v m V v v A S V m A S m b b n m n "
};
