/* XPM */
static char *_0ba1902f682475bc6f9d4c144107a51X6KMPTDkFFr4QTg9[] = {
/* columns rows colors chars-per-pixel */
"32 32 147 2 ",
"   c black",
".  c #0C0A0B",
"X  c #0E0A0C",
"o  c #0D0D0F",
"O  c #140B00",
"+  c #0E0D10",
"@  c #1A1613",
"#  c #4A2602",
"$  c #7B3C00",
"%  c #483D36",
"&  c #7D4206",
"*  c #7C4407",
"=  c #4E423A",
"-  c #4F423B",
";  c #6F543A",
":  c #625546",
">  c #795D44",
",  c #6B5E54",
"<  c #75604C",
"1  c #944B00",
"2  c #955307",
"3  c #975508",
"4  c #865313",
"5  c #8C611C",
"6  c #8D631F",
"7  c #A06716",
"8  c #835026",
"9  c #835227",
"0  c #845227",
"q  c #855328",
"w  c #875328",
"e  c #865428",
"r  c #8A562B",
"t  c #8B562B",
"y  c #8A572B",
"u  c #8B572C",
"i  c #8B582D",
"p  c #8C582C",
"a  c #8D582C",
"s  c #8D582D",
"d  c #8F592D",
"f  c #8F5B2F",
"g  c #905B2E",
"h  c #915C2F",
"j  c #8E5B30",
"k  c #925C30",
"l  c #925E33",
"z  c #945F33",
"x  c #955F33",
"c  c #8A6122",
"v  c #8D6A22",
"b  c #8B7F2E",
"n  c #956033",
"m  c #966135",
"M  c #946036",
"N  c #986236",
"B  c #986336",
"V  c #986337",
"C  c #996437",
"Z  c #92623A",
"A  c #966238",
"S  c #996438",
"D  c #8C7F32",
"F  c #A37224",
"G  c #A97622",
"H  c #AB7622",
"J  c #A87923",
"K  c #DE7809",
"L  c #DF7B0A",
"P  c #E27300",
"I  c #EC7801",
"U  c #E87E0A",
"Y  c #856245",
"T  c #8C6747",
"R  c #956843",
"E  c #9B6C45",
"W  c #826956",
"Q  c #876F5B",
"!  c #876F5C",
"~  c #8F715A",
"^  c #89715C",
"/  c #89715D",
"(  c #8C725E",
")  c #96785F",
"_  c #9A7A5F",
"`  c #967960",
"'  c #9A7B62",
"]  c #9B7C62",
"[  c #9C7C62",
"{  c #9D7E64",
"}  c #9E7F65",
"|  c #8A8035",
" . c #AB832B",
".. c #A99B3A",
"X. c #A9983C",
"o. c #A89C3D",
"O. c #E8800A",
"+. c #E9820B",
"@. c #F19820",
"#. c #F79E22",
"$. c #EDA42E",
"%. c #EFAB2E",
"&. c #F8A022",
"*. c #FFAE31",
"=. c #FFB032",
"-. c #FFB134",
";. c #FFB634",
":. c #FFB734",
">. c #FFB835",
",. c #FFBA37",
"<. c #FFBC39",
"1. c #8A8557",
"2. c #A99D41",
"3. c #9F8066",
"4. c #8B8875",
"5. c #A08167",
"6. c #A9A06C",
"7. c #FFC441",
"8. c #FFCF44",
"9. c #FFE655",
"0. c #FEE158",
"q. c #FEE859",
"w. c #FFE85E",
"e. c #FFED5D",
"r. c #FFF258",
"t. c #FFF459",
"y. c #FFF35C",
"u. c #FFF45E",
"i. c #FFEA60",
"p. c #FFF362",
"a. c #FFF562",
"s. c #FFF464",
"d. c #FFF666",
"f. c gray54",
"g. c #8B8B8B",
"h. c #8B8C8F",
"j. c #8A8B90",
"k. c #A8A58D",
"l. c #A9A9A9",
"z. c #A9A9AE",
"x. c #FDF19E",
"c. c #FFF8A3",
"v. c #FFFAA4",
"b. c #FDF9D3",
"n. c #FFFDD7",
"m. c #FFFDD8",
"M. c #FEFFFF",
/* pixels */
"m m s r e s k m m m S k s k r 0 e e e r n V k s m k s i e s k h ",
"m V s q e s m C m m z s h s e r s r 9 r m V k s s k k s e s k s ",
"z m u q e s m m m m j p k ~ % - = = < j z S g s k C S h e i k s ",
"h k r 0 9 s C S S x p m Z < O O O O : Z A V s z S m V n e e s k ",
"r r q r r e g m m s g _ @ c %.$.$.%.F @ ( g k V m m m m r q q r ",
"0 w s k V s 9 r r r r `   v 8.7.7.8. .  / g m m m m V m r e q q ",
"g h g x V V 0 0 q r s ]   | d.i.i.d.2.  / z m m m m m m i e r s ",
"V V m V V z g 0 e s k [   | a.w.w.p.2.  / z V m m m m m s e s k ",
"m m m V S k g p q d k '   D u.q.q.y.o.  Q m V m m m V m s e s m ",
"z m m V x p g p w p k '   4.m.b.b.n.k.  Q k V m m m S m s r s h ",
"g g g g p g g g q p s [   h.M.M.M.M.z.  Q s m V m m m k s q s h ",
"g s g s g p k g q u g {   f.M.M.M.M.l.  Q q g z m m h s r 9 s h ",
"s k g k g u r q q w k {   h.M.M.M.M.l.  / e 0 q r r r r e e e s ",
"r p u p q q t p w w k {   j.M.M.M.M.z.  ( e r r j k m z h s e q ",
"q q q 0 w k V V k q p {   1.v.x.x.c.6.  ( r z C V V z g h s e e ",
"q q q q r z z x k w w '   b t.9.9.r...  / q s h s r r q r q q q ",
"r a r 0 0 r g s r e e )   D d.w.w.a.2.  / e q 0 q r w p u r p p ",
"C V z a q 0 r r e s s [   D e.0.0.e.X.  / 0 q p t p g p k k x V ",
"V z h g s 0 q q r m m {   6 ,.=.-.,.J   / 0 s k k k p z m V V V ",
"g g s z s 0 e 0 s C m 5.  6 :.*.*.;.G   / q s h S m p x V m m m ",
"g g t t 9 q e r g m S 3.  6 ,.*.*.,.G   / r r g z h s g k k h s ",
"0 r w e r h r q s n C 3.  5 :.=.=.;.G   / r 0 e r r r r e r r r ",
"t s k k m n s 9 s h m 3.  c >.*.*.,.G   ( a e r s t s s q q e q ",
"z V V V C m r e s h k 3.  * O.K K U 2   ( s e s s h V S k e e s ",
"S m m m m x u 0 p k p [   * O.U K O.3   / u w p h z C S z 0 r m ",
"m m m S z p r 0 t p k [   c ,.;.;.<.J   / q r w s g V m s q g V ",
"m m A k g p q r 0 q 0 )   4 &.@.@.#.7   Q q p w r s s r 9 r z m ",
"V x k p g p 0 0 r r t [   $ I P P I 1   ! r p k g g r 9 0 s m V ",
"k k p p g u 8 p g g z E T > # # # # ; Y R V k p g p j t 0 p z z ",
"p p k k p p g g p m V V z W X o + X , 0 k S k p z z k t q g g u ",
"k x k p p s g p z V z V z g r r z V k 0 z S k p V V z w q g g g ",
"x S k u q s p x V m m m k g t q p k r q z V k g V z k t w g u g "
};
