/* XPM */
static char *_5f9ce600f994f1a9fd1f7b89cea723dudq5JSF3CHoPtskt[] = {
/* columns rows colors chars-per-pixel */
"32 32 194 2 ",
"   c None",
".  c #000001",
"X  c #010308",
"o  c #0E0A06",
"O  c #1A0700",
"+  c #1E0B00",
"@  c #1E1103",
"#  c #1F1508",
"$  c #0D0E11",
"%  c #080E19",
"&  c #0F131D",
"*  c #191B1D",
"=  c #221604",
"-  c #251A06",
";  c #221808",
":  c #2A1B04",
">  c #2D221B",
",  c #30261B",
"<  c #171E28",
"1  c #1A202A",
"2  c #242629",
"3  c #26272A",
"4  c #292C31",
"5  c #34393E",
"6  c #353739",
"7  c #3B352A",
"8  c #422B02",
"9  c #592600",
"0  c #4F350A",
"q  c #50350A",
"w  c #56390B",
"e  c #57391D",
"r  c #622E02",
"t  c #6B3A01",
"y  c #703B04",
"u  c #7C3F02",
"i  c #76410D",
"p  c #784311",
"a  c #775215",
"s  c #6D4709",
"d  c #51493C",
"f  c #4B4339",
"g  c #634728",
"h  c #6D5123",
"j  c #785C2F",
"k  c #715637",
"l  c #3A3C41",
"z  c #434445",
"x  c #4A4C4C",
"c  c #5B544B",
"v  c #4A4D51",
"b  c #505151",
"n  c #65615A",
"m  c #666769",
"M  c #766E66",
"N  c #6C6E73",
"B  c #7F7C76",
"V  c #803E00",
"C  c #824202",
"Z  c #8C4401",
"A  c #8F520A",
"S  c #9D5807",
"D  c #804C15",
"F  c #AB4F00",
"G  c #AA5000",
"H  c #B35500",
"J  c #BB5A00",
"K  c #9C701D",
"L  c #B87A1B",
"P  c #876227",
"I  c #967128",
"U  c #906D31",
"Y  c #A47323",
"T  c #B17D23",
"R  c #B07F2C",
"E  c #D45D00",
"W  c #D56400",
"Q  c #D96600",
"!  c #DC6B01",
"~  c #DB7003",
"^  c #DD7B0C",
"/  c #DC7708",
"(  c #DB7911",
")  c #E66E00",
"_  c #ED7402",
"`  c #F17A02",
"'  c #F07300",
"]  c #E07F12",
"[  c #B18221",
"{  c #BD8324",
"}  c #B88128",
"|  c #C1831D",
" . c #DF8412",
".. c #D28C1C",
"X. c #E28A18",
"o. c #F58E12",
"O. c #F48911",
"+. c #ED931C",
"@. c #E5941D",
"#. c #C68D27",
"$. c #CB8B23",
"%. c #C38525",
"&. c #CB952C",
"*. c #C99226",
"=. c #D9992B",
"-. c #EC9821",
";. c #E99A23",
":. c #F29C23",
">. c #DCA330",
",. c #D9A62E",
"<. c #EAA62B",
"1. c #EDAA2D",
"2. c #FDA925",
"3. c #F7A329",
"4. c #FBA62A",
"5. c #FDAA2E",
"6. c #F6A026",
"7. c #FEB12D",
"8. c #FFB823",
"9. c #E2AB33",
"0. c #EDAE34",
"q. c #E9AD3B",
"w. c #FFAF32",
"e. c #ECB135",
"r. c #EEB93C",
"t. c #FEB334",
"y. c #FFBB34",
"u. c #F1B638",
"i. c #F3BB3B",
"p. c #FEBC3B",
"a. c #FEB43C",
"s. c #FFC234",
"d. c #FEC43D",
"f. c #FFCA3D",
"g. c #F3C33F",
"h. c #EEBB49",
"j. c #FDB549",
"k. c #FDB447",
"l. c #E2B774",
"z. c #FEC341",
"x. c #FDCB44",
"c. c #FEC44C",
"v. c #F4C847",
"b. c #FFD341",
"n. c #F6D14E",
"m. c #FDD24C",
"M. c #FFDB4B",
"N. c #F6D242",
"B. c #FFC854",
"V. c #F7D652",
"C. c #F7D953",
"Z. c #FDDC54",
"A. c #FCDF58",
"S. c #FED651",
"D. c #FEE546",
"F. c #FDE34D",
"G. c #FEE357",
"H. c #FFE953",
"J. c #FEE45B",
"K. c #FEE95E",
"L. c #FDF055",
"P. c #E3C17E",
"I. c #FEEC62",
"U. c #FEEE6E",
"Y. c #FEF366",
"T. c #FFF569",
"R. c #FEED7C",
"E. c #FDE876",
"W. c #898C8E",
"Q. c #FFD186",
"!. c #FFDA93",
"~. c #FDDE98",
"^. c #E7C691",
"/. c #FEEC89",
"(. c #FFE285",
"). c #FEF484",
"_. c #FDF18E",
"`. c #FCEF95",
"'. c #FDF199",
"]. c #FDDDA9",
"[. c #FDEFA6",
"{. c #FEF4A3",
"}. c #FEE1B5",
"|. c #FEE2BA",
" X c #FEF8B8",
".X c #FDF7CA",
"XX c #FFEFD7",
"oX c #FFF9DB",
"OX c #FCE8C7",
"+X c #FEFBE3",
"@X c #FEFCEC",
"#X c #FFF6E8",
"$X c #FDFDF6",
"%X c #FDFFFE",
/* pixels */
"                                                                ",
"                        v % & & & & & N                         ",
"                      B g w 0 0 0 w w k                         ",
"                * . . - *.y.t.t.7.t.y.I . . X m                 ",
"                h s t P P.(.m.b.m.m.M.&.9 9 9 g                 ",
"            1 . =.d.8.B.@X@XU.H.I.K.Y.g._ ` ` Z .               ",
"            h a l.!.Q.~. X{.U.K.I.I.Y.n.<.1.1.L 9 e             ",
"        3 . ..d.+X%X%X@XU.D.K.K.K.K.K.I.Y.T.T.x.` Z X           ",
"        j a l.!.[. X X{.h.1.e.e.0.0.0.v.I.I.K.m.<.L r g         ",
"    4 . ..s.@X%XR.D.H.N.^ E W Q Q W E @.I.I.K.Y.T.z.' C .       ",
"    4 . | 7.XX%X).H.r.<.;.+.+.+.+.+.+.-.<.r.I.I.K.u.Q u X       ",
"    6 o %.t.XX$X).C.( W 5.p.t.a.a.t.p.-.W @.Y.I.I.i.! C o       ",
"W.m U K ^.}.{.`.q.;.-.:.w.t.w.w.5.p.S.n.r.h.d.m.I.C.r.#.Z k m   ",
"6 . $.s.oX%XR.F.^ Q 3.p.t.w.w.t.5.z.K.Y.T.M.4.z.I.I.Y.p._ y . z ",
"z . %.w.E./.U.J. .~ 3.t.w.w.w.s.m.A.K.K.K.m.5.z.I.I.I.u.) y . b ",
"z . %.t.m.G.I.K. .~ 3.t.w.w.4.k.K.I.K.K.K.m.5.k.I.I.I.u.! y . b ",
"z . { w.Z.K.I.J.X.~ 3.t.w.p.m.A.K.K.H./.oX~.2.z.I.I.K.u.! y . b ",
"z . { t.Z.I.I.J. .~ 3.t.4.p.G.I.K.J.H.'.%X|.2.d.I.K.K.r.! y . b ",
"l . { y.Z.I.I.K. .! 6.p.m.A.K.K.F.)..X@X%X}.2.g.I.I.I.i.) t . x ",
"b $ } 3.C.K.I.J.X./ :.a.A.I.K.K.G.'.$X%X$X].2.x.I.K.J.e.W i $   ",
"    d # &.p.A.K.G.n.(  .C.Y.H._.+X$X%XOXj.c.G.K.K.z.] A @ M     ",
"    5 . %.t.A.K.Y.G.X. .n.I.M./.+X$X@X].5.d.I.I.K.u.E V X       ",
"    2 . $.p.G.I.I.I.A.n.p.w.t.a.k.j.j.c.G.J.K.I.Y.g.) V .       ",
"    x 3 R =.n.A.J.I.I.G.p.t.a.t.t.7.t.z.K.K.K.J.C.9.J a 4       ",
"        7 = =.f.J.I.Y.I.G.A.G.G.A.A.G.K.U.Y.Y.m.O.S + c         ",
"          & Y =.V.J.A.G.I.I.K.K.I.I.I.J.n.C.C.9.H u 1           ",
"            , : ,.f.s.m.K.U.I.I.I.I.T.x.o.o.o.S + 3             ",
"              2 Y #.{ &.v.G.Z.Z.Z.A.J.9.F F H y 1               ",
"                ; = @ 8 ,.b.f.f.d.f.b.[ + + + c                 ",
"                  6 5 f I [ T T T T } P 5 5 5 W.                ",
"                        d = ; ; ; ; - n                         ",
"                                                                "
};
