/* XPM */
static char *_f47bbfd1f884775af4b9f5dc17219c3lYWnmNxQATbL6sqZ[] = {
/* columns rows colors chars-per-pixel */
"32 32 155 2 ",
"   c #010000",
".  c #090603",
"X  c #0B0907",
"o  c #0D0C0A",
"O  c #170400",
"+  c #130B05",
"@  c #18120C",
"#  c #1A1714",
"$  c #181818",
"%  c #230C00",
"&  c #261208",
"*  c #2B1B0E",
"=  c #331100",
"-  c #391200",
";  c #251E1A",
":  c #352313",
">  c #3B2614",
",  c #272C2E",
"<  c #362E26",
"1  c #3F352D",
"2  c #272E31",
"3  c #313131",
"4  c #431200",
"5  c #472E19",
"6  c #4F321A",
"7  c #52341A",
"8  c #5D3A1E",
"9  c #722700",
"0  c #7B2700",
"q  c #7B2900",
"w  c #453123",
"e  c #583D26",
"r  c #473F36",
"t  c #4A4038",
"y  c #664021",
"u  c #6E4624",
"i  c #784727",
"p  c #744923",
"a  c #7B4D26",
"s  c #7C4F29",
"d  c #7E502A",
"f  c #554B41",
"g  c gray33",
"h  c #7C6A5F",
"j  c #6C6C6C",
"k  c #7D6D60",
"l  c #7C7D7E",
"z  c #8A2F00",
"x  c #893C14",
"c  c #A13400",
"v  c #A73800",
"b  c #A83A00",
"n  c #B83E00",
"m  c #B5581F",
"M  c #845227",
"N  c #855329",
"B  c #8A562B",
"V  c #8E592D",
"C  c #915B2E",
"Z  c #9A5C2C",
"A  c #855630",
"S  c #875831",
"D  c #8C5B33",
"F  c #925D32",
"G  c #A95A26",
"H  c #AC5F2C",
"J  c #B55E26",
"K  c #966135",
"L  c #986336",
"P  c #996438",
"I  c #BE6025",
"U  c #BF612A",
"Y  c #A56334",
"T  c #A86739",
"R  c #CF4600",
"E  c #D04900",
"W  c #DB4A00",
"Q  c #D94F08",
"!  c #D4560F",
"~  c #C85716",
"^  c #CF5915",
"/  c #C15B1D",
"(  c #CB5C1C",
")  c #D75B16",
"_  c #E94D00",
"`  c #FF4700",
"'  c #FF4C00",
"]  c #E75A0D",
"[  c #ED5A0B",
"{  c #F65403",
"}  c #FF5400",
"|  c #FE5901",
" . c #F75A0A",
".. c #FE5C0C",
"X. c #DC621F",
"o. c #EE6017",
"O. c #E7611B",
"+. c #EA621B",
"@. c #FF6013",
"#. c #FB671B",
"$. c #FB691D",
"%. c #C46228",
"&. c #D7682A",
"*. c #DD6A2C",
"=. c #D4723A",
"-. c #E06A2B",
";. c #FC6C22",
":. c #E0702E",
">. c #FF7029",
",. c #E26F30",
"<. c #E17332",
"1. c #EC7536",
"2. c #F6793B",
"3. c #9A8775",
"4. c #B28A69",
"5. c #B89271",
"6. c #BF9878",
"7. c #FF8245",
"8. c #FF874D",
"9. c #F58B51",
"0. c #FF8E50",
"q. c #F39663",
"w. c #AE9885",
"e. c #B6B6B6",
"r. c #C5A384",
"t. c #C1AA94",
"y. c #DBBA9C",
"u. c #EFAA81",
"i. c #FFAB84",
"p. c #FFB48F",
"a. c #FFB691",
"s. c #E2C6AD",
"d. c #E5C8AF",
"f. c #E8C9AE",
"g. c #E8CBB1",
"h. c #E7CFB8",
"j. c #FFC9B1",
"k. c #EED0B5",
"l. c #E7D2BB",
"z. c #F7D8BD",
"x. c #BBBFC0",
"c. c #CACECF",
"v. c #D1D3D4",
"b. c #D9DCDE",
"n. c #FFD7C4",
"m. c #FDDDC1",
"M. c #FFE3CD",
"N. c #EAEDEF",
"B. c #FFEEE7",
"V. c #FFF2ED",
"C. c #FFF5EF",
"Z. c #FFF9F4",
"A. c #FFFDF7",
"S. c #F3F7F9",
"D. c #FDFEFE",
/* pixels */
"K K V N N V C K K K K C C C B N N N N B K K D V K F B B N C C V ",
"K K V N N C K L K K F V V C N B V B M B K L C V V C K V N V C V ",
"K K B N N V L K K L D Y  .{  .{ { { { &.D P C V F L P V N B K V ",
"C F B M M V L L L K G %.| } } } } } } +.U T V F L K L K N N V V ",
"V N N B B N V K L C } } } } } } | } } } } =.F L K K K F B N N B ",
"M B B C K V M B m ~ } } | } } } } } } } } +.( H K K K K B N N N ",
"C C F K P L B M } | } } } } } | } | } } } } } ( K K K K V M V V ",
"K L K L K Z ^ ! } } | } } } } } } } } } } } } [ ) I K K V M V F ",
"K K K K P Z { { { { } } } } | } } } } } } } { { { ( L K V N V K ",
"K K L L ] Q % O O 4 | | } } } } } } } } | c O O + q [ I V N V C ",
"C C Z Z { _ = & , w R W } } } } } | | { E x 2 ; % z | / C N V C ",
"V C  .{ } } ' >.D.v.  - | | | | | | | n   j D.p.' } } { { m B C ",
"V Z  .} } } } >.D.v.  % v v v v v v b 9   j D.a.' } } | } m M V ",
"N V  .} } } ' >.D.v.                      j D.a.' } } } } J N M ",
"I %.| } } } } >.D.v.  $ l h 0 q 0 i l g   j D.p.' } } } } X.%.N ",
"} } } } } } } >.D.v.  3 D.M.} | } 0.D.e.  j D.p.' } } } } } } N ",
" .} } } } } ' >.D.S.x.c.D.n.' } ` 8.D.N.x.b.D.a.` } } } | } { V ",
"{ } | } } } } >.B.C.A.Z.V.j.} } ' 7.V.C.A.Z.V.i.' } } } } } { P ",
"} } } } } } } } @.@.........' } } } ........@...} } } } | { } L ",
"O.o.| } } } } } } } #.$.#.#.;.;.;.$.$.$.$...} } } } | } }  .O.K ",
"C Z } } } } ' } ` #.g.g.g.g.f.g.g.f.g.d.l.q.` ' ' } } ' } J Z D ",
"N B &.,.<.<.:.,.2.9.f.h.g.g.g.g.g.g.g.g.h.u.2.1.-.-.*.*.*.H B B ",
"B D D F K F V N h.l.g.g.g.g.f.g.g.g.g.g.g.h.l.5.V V V V B M M M ",
"F P P F A S a a y.g.g.g.g.g.g.g.g.g.g.g.g.g.g.6.V C L P C N N C ",
"L L K F A N N u r.t.t.s.g.g.g.g.g.g.g.g.g.g.k.4.F F P P F N B F ",
"F F S S s s d i 5 o o t h.h.g.g.g.g.g.g.z.3.< e s N P P B N F P ",
"P D D S d d a a >     ; s.s.g.g.g.g.g.g.k.k + 7 s s B B M B F K ",
"P D N N N a p p 7     . @ r s.s.s.g.m.w.# o + 7 s N B N N B K P ",
"K V d N d d a M 8 @       X < 1 1 f 3.h     . 6 N B V B N V F F ",
"B V V V a a s i y *                     . . . 8 F F C B M C C V ",
"V K F V N B V V K >                   . . o u V P P F B N C V V ",
"K L C B N V V K K 5       + 7 * .       + : s V P F F B B V V C "
};
