/* XPM */
static char *_e31b0e6bbf14ce9c6a60654da3fa437uD9smUcKitHxhXFq[] = {
/* columns rows colors chars-per-pixel */
"32 32 180 2 ",
"   c #010000",
".  c #0D0401",
"X  c #170902",
"o  c #1C0B02",
"O  c #210D02",
"+  c #2C1002",
"@  c #341303",
"#  c #3B1603",
"$  c #3D1804",
"%  c #311C12",
"&  c #36251E",
"*  c #421904",
"=  c #4C1C03",
"-  c #471D09",
";  c #531F04",
":  c #601F03",
">  c #632404",
",  c #6B2907",
"<  c #682808",
"1  c #742B05",
"2  c #7B2D05",
"3  c #732D09",
"4  c #7B2E08",
"5  c #7E3007",
"6  c #7E3009",
"7  c #7B3615",
"8  c #583222",
"9  c #623826",
"0  c #7F4127",
"q  c #832E03",
"w  c #882D00",
"e  c #833207",
"r  c #8A3305",
"t  c #853308",
"y  c #8B3509",
"u  c #8E380C",
"i  c #933605",
"p  c #913709",
"a  c #95390A",
"s  c #9A3B09",
"d  c #853914",
"f  c #8C3B12",
"g  c #863E1C",
"h  c #933D12",
"j  c #AA3C05",
"k  c #9F410D",
"l  c #9B451A",
"z  c #9E471D",
"x  c #A04618",
"c  c #A2491C",
"v  c #AB4C1E",
"b  c #B14C1D",
"n  c #8E4420",
"m  c #964821",
"M  c #845227",
"N  c #865328",
"B  c #8A562B",
"V  c #8E592D",
"C  c #905B2F",
"Z  c #8B5A30",
"A  c #925D31",
"S  c #AE4F20",
"D  c #AC5529",
"F  c #B45425",
"G  c #B5592E",
"H  c #A85936",
"J  c #B25B32",
"K  c #BA5E32",
"L  c #966135",
"P  c #986337",
"I  c #9A663B",
"U  c #9C693D",
"Y  c #B76B36",
"T  c #C04B0F",
"R  c #C64D11",
"E  c #CC561B",
"W  c #CE5A22",
"Q  c #D15E27",
"!  c #C05E31",
"~  c #D0612B",
"^  c #C4673C",
"/  c #C86538",
"(  c #C9673A",
")  c #CD693B",
"_  c #D16936",
"`  c #D36C3C",
"'  c #8F674F",
"]  c #976547",
"[  c #9B6B43",
"{  c #9F704B",
"}  c #996E55",
"|  c #9F7755",
" . c #AA6541",
".. c #A96542",
"X. c #A56C4C",
"o. c #AD6C4B",
"O. c #BC6B46",
"+. c #B26D4B",
"@. c #A0724B",
"#. c #B1714F",
"$. c #A06E51",
"%. c #A57554",
"&. c #A97454",
"*. c #A47955",
"=. c #A47C5A",
"-. c #AB7C5B",
";. c #BB7554",
":. c #B37C5B",
">. c #B97B5A",
",. c #BB7F63",
"<. c #C66E45",
"1. c #C9734B",
"2. c #D5754C",
"3. c #C27D5B",
"4. c #D17750",
"5. c #E2765B",
"6. c #AB815E",
"7. c #A78162",
"8. c #AB8464",
"9. c #AA8668",
"0. c #AE8969",
"q. c #B98264",
"w. c #B18866",
"e. c #B6876A",
"r. c #B38D6D",
"t. c #B38F72",
"y. c #B69274",
"u. c #B89476",
"i. c #B9977C",
"p. c #BB987E",
"a. c #CC805C",
"s. c #C98767",
"d. c #D88A63",
"f. c #D19468",
"g. c #C28F77",
"h. c #CA8C70",
"j. c #C6957B",
"k. c #DA9475",
"l. c #E19777",
"z. c #B99380",
"x. c #BC9E85",
"c. c #BFA289",
"v. c #CA9D86",
"b. c #D29C81",
"n. c #E59584",
"m. c #EA9582",
"M. c #E69F95",
"N. c #C3A289",
"B. c #C4A189",
"V. c #DFA58A",
"C. c #C8AD97",
"Z. c #CBAE99",
"A. c #D3AA95",
"S. c #D9AE99",
"D. c #CAB09B",
"F. c #CDB5A0",
"G. c #D8B9A7",
"H. c #E9BCA9",
"J. c #F0B2A6",
"K. c #D6C2B1",
"L. c #DAC4B6",
"P. c #DDCABC",
"I. c #ECC9B7",
"U. c #E4C6BA",
"Y. c #E4D2C5",
"T. c #E3D4C9",
"R. c #E5DAD1",
"E. c #E9DDD4",
"W. c #EDE4DC",
"Q. c #F5E1D8",
"!. c #EEE7E1",
"~. c #EFE8E2",
"^. c #F0E7E1",
"/. c #F1EAE5",
"(. c #F4EEEA",
"). c #F5F1ED",
"_. c #F7F4F1",
"`. c #F9F7F5",
"'. c #FAF8F7",
"]. c #FCFBFA",
/* pixels */
"L L V B M V A L P P P A V Y f.z.v.t.] N L L A V L A B B N C C V ",
"L L V N N V L L A L A V C Y M.J.m.U.9.B L L A V V C L V N V C V ",
"L L B M M C P L L P A C C +.n.l.5.U.7.B L P Z [ -.8.U C M V A V ",
"C A B M M [ y.r.w.*.%.@.A  .h.A.v.B.{ Z U *.6.F./.).y.L N N V C ",
"B N M B L c.(.(.(.T.E.L.>.<.s.N.-.e.3.>.B.T.R.I.Y.].u.L B M N B ",
"N B B C I c.~.b.V.L._.G.` E f.T.i.a.R ~ H.E.G.k.d.`.r.L B N N N ",
"C C A L [ N.(.o.O.A.'.S.b j h.W.B.s.j b k.D.g.1.;.`.r.L B M B V ",
"L P P P I N./.@.S O.g.<.y q J h.;.G y t ^ X.<.F ' `.r.L V N V A ",
"P L L L U x.(.&.t r i i p t t r r q q u i i i e %.`.r.P V B B A ",
"L L L L A u.).-.t 2 1 = , 6 2 2 2 2 2 1 = 1 2 2 &.`.t.A V B V A ",
"V C C C V w.`.-.k t # . . > a t 2 s < X . + e s } '.r.A B N V C ",
"C V C C C 0.`.:.a q =     = y y r a < O   O , a %.`.0.V B M V C ",
"V C Z A V 8.`.-.h 6 *     = y t t p < o   o , a $.'.0.B B N N B ",
"B B B B B 8.`.&.u 4 @     = r 6 2 i > .   o 3 p ' `.t.A C V B N ",
"V =.7.=.7.D.!.:.y 3 $ .   - y 6 2 y > X   O , r } ].D.=.@.[ B N ",
"=.(.(.!.~.W.P.:.m 6 > % & 9 n 6 t n 0 8 % @ < d ;.E.`.E.P.L.9.Z ",
"6./.I.G./.U.k.` ! g : H Y ` J 7 , J ) ! H > g G _ l.P.^.T.Q.W.*.",
"e./.b.j.T.Z.4.T ! J S 2.W W / J D <.Q W 2.v K K T ) e.r.j.H.W.6.",
"r.(.s.3.u.q.D q b / K ` s a G / / K a a ) K / S w c ;.,.3.A.W.8.",
"y.(.o.h h h y , u z n x 3 1 a c m h 3 3 l n z y , e h h c v.W.6.",
"v.~.] 1 2 2 1 u 2 2 w > e t 3 q r 2 t y > w 1 2 p 3 2 2 d z.!.=.",
"x.W.H e 2 e r 5 t t 2 r e t , * @ ; 3 y y 1 t t 4 y q t f j.W.| ",
"x.^. .t 6 t t e t t 6 t y 3 # .   X = t t 4 t e 4 t t 4 d e.!.| ",
"N.^.[ 6 6 t 2 t 5 e t 4 t = .       + 3 2 y 6 e t q 4 t y -.R.=.",
"N.~. .y t y y t u r t u t @         O , p t y r t y y t y :./.w.",
"i.W. .y y r y t u y r p r @         O , a t y y t y r r y +.(.r.",
"G.].e.t r y e p t r u e r $         O > e p y t y t t u y X.).r.",
"C.'.:.t t t t t r t q u e @         O < y e t t t t t t y o.).r.",
"N.`.o.r 6 t t e y t e u e @         O < p 2 y t e t t t t X.(.r.",
"C.).X.t y y 2 a t t a 3 t *         O > 4 s t t a t y y y X.).0.",
"D.W.+.t 5 e y 3 y r 3 a e +         o , s 1 t y 1 t e 4 e >.`.z.",
"K.`.+.y y p y p y p y y r #         O , p p y y p y p y p q.].D."
};
