/* XPM */
static char *_aa377e80b3b41eee7177b14e3fd69a9srPfazuLuptUrzBD[] = {
/* columns rows colors chars-per-pixel */
"32 32 199 2 ",
"   c #010100",
".  c #0C0605",
"X  c #0B0905",
"o  c #0E0D0A",
"O  c #150908",
"+  c #1A1614",
"@  c #1C1C1C",
"#  c #28000A",
"$  c #221304",
"%  c #2B1E19",
"&  c #2E280C",
"*  c #392B0C",
"=  c #26201B",
"-  c #39261B",
";  c #282523",
":  c #373836",
">  c #5B0000",
",  c #5F1E0F",
"<  c #57310C",
"1  c #6C3106",
"2  c #6D1625",
"3  c #4F2C22",
"4  c #483B2C",
"5  c #4A3C33",
"6  c #653524",
"7  c #6F4312",
"8  c #754911",
"9  c #626C0C",
"0  c #474223",
"q  c #754E2E",
"w  c #724D37",
"e  c #795938",
"r  c #0C2C7F",
"t  c #1C377A",
"y  c #565453",
"u  c #6B4D42",
"i  c #725846",
"p  c #695851",
"a  c #7B604A",
"s  c #8C061C",
"d  c #931311",
"f  c #A10304",
"g  c #AB0005",
"h  c #AF050E",
"j  c #B20015",
"k  c #B2051B",
"l  c #A51917",
"z  c #942A15",
"x  c #953319",
"c  c #B0271C",
"v  c #8D0A2A",
"b  c #980C2F",
"n  c #AA032F",
"m  c #BF0021",
"M  c #AC1C21",
"N  c #933E24",
"B  c #B02A2B",
"V  c #A63C29",
"C  c #B72C39",
"Z  c #BA3A3C",
"A  c #C5001E",
"S  c #C1182A",
"D  c #C80437",
"F  c #D2013A",
"G  c #C31B3C",
"H  c #844509",
"J  c #914B00",
"K  c #875816",
"L  c #925015",
"P  c #8D651A",
"I  c #9E631A",
"U  c #974C2B",
"Y  c #845227",
"T  c #865328",
"R  c #8A562B",
"E  c #8E592D",
"W  c #905B2F",
"Q  c #8C5D38",
"!  c #925D31",
"~  c #925D3C",
"^  c #AB533E",
"/  c #996A26",
"(  c #966135",
")  c #986337",
"_  c #94643B",
"`  c #9A6439",
"'  c #9B6C3D",
"]  c #9C7438",
"[  c #B27330",
"{  c #C75538",
"}  c #CA2747",
"|  c #C42B4A",
" . c #C5304E",
".. c #D62F52",
"X. c #E3325C",
"o. c #91544A",
"O. c #B44943",
"+. c #A95D49",
"@. c #B25D4F",
"#. c #946846",
"$. c #9A6E4A",
"%. c #9F744A",
"&. c #8F7155",
"*. c #997455",
"=. c #A76447",
"-. c #A07244",
";. c #A3784A",
":. c #A46856",
">. c #A96C56",
",. c #A7735B",
"<. c #B57B59",
"1. c #977C69",
"2. c #AB7E61",
"3. c #CA4847",
"4. c #C44657",
"5. c #CA5265",
"6. c #B48916",
"7. c #8A8D37",
"8. c #A29C29",
"9. c #B4AC2C",
"0. c #DA9831",
"q. c #D6B93E",
"w. c #AF8650",
"e. c #A78359",
"r. c #968479",
"t. c #B88D6F",
"y. c #ADA869",
"u. c #CA8759",
"i. c #ED955A",
"p. c #CA896D",
"a. c #D48B6E",
"s. c #D88B6E",
"d. c #E7956D",
"f. c #EE9A7C",
"g. c #F79B78",
"h. c #FFFF65",
"j. c #1D3F90",
"k. c #233586",
"l. c #003FB0",
"z. c #264482",
"x. c #0042AB",
"c. c #104EAF",
"v. c #1E53A0",
"b. c #0248B4",
"n. c #1E61A9",
"m. c #5A6682",
"M. c #677794",
"N. c #5976A0",
"B. c #0969CA",
"V. c #1070CD",
"C. c #006DD8",
"Z. c #007AD7",
"A. c #0073DB",
"S. c #2A87BA",
"D. c #7B92AF",
"F. c #3795DA",
"G. c #008BE7",
"H. c #0D95EB",
"J. c #369FE5",
"K. c #2AA7F0",
"L. c #418DD3",
"P. c #57C6F7",
"I. c #79D2F8",
"U. c #83888C",
"Y. c #BFAA86",
"T. c #9CA7B8",
"R. c #A1A9AC",
"E. c #CB9182",
"W. c #C5AC99",
"Q. c #D8AC95",
"!. c #C4B695",
"~. c #EFA082",
"^. c #FCA886",
"/. c #FFAD90",
"(. c #EDB395",
"). c #FFB392",
"_. c #CAB3A3",
"`. c #C9C8A2",
"'. c #DAC9B8",
"]. c #E6C9B7",
"[. c #FFD2B5",
"{. c #FFDCBD",
"}. c #93CBCF",
"|. c #93C6D8",
" X c #BEC3C6",
".X c #84E2FF",
"XX c #92EEFF",
"oX c #9FF2FF",
"OX c #DED4CC",
"+X c #D8D8D7",
"@X c #E2DACB",
"#X c #DFE0CA",
"$X c #FFE6D6",
"%X c #DDE2E3",
"&X c #EEEDED",
"*X c #FFF5E4",
"=X c #EFEFF0",
"-X c #F7FAFF",
";X c #FCFEFF",
/* pixels */
"( ( E T T E ! ( ! ` ` ! E W W =.l l l l B =.! E ( ! E R T W W E ",
"( ( E T T E ( ( ! ` ! W ! +.O.Z C { 0.Z C O._ E E ! ! E T E ! E ",
"( ( R T Y E ) ( ! ` W ! @.l M G 3.q.h.(...g U E ! ) ) E T R ! E ",
"W ! R Y Y E ) ) ` ! W +.M } X.b , 9 7.&.2 > 6 _ ( ( ) ( T T E W ",
"R T Y R R T E ( ~ ! z B } b v #               4 q ( ( ( R Y T R ",
"T R R W ) E Y R ! >.j | b #                     - ( ( ( R T T T ",
"W W ! ( ) ( Y Y N l F n #   . + @ @ + @ @ .   o 0 ` ) ( R Y R E ",
") ) ( ) ) ( E T x h F n O   $.].%X'.f.+X%X: X i ` ` ) ( E T R ( ",
") ( ( ( ) W W R =.f.E.# . :.g.$XR.p Q.y +Xt.$.' ) ( ( ( E T W ! ",
"( ( ( ) ! R W p.u.u.Y.  . p.).*XU.: Y.@  XOXw.-.) ~ ) ( R R W W ",
"W W W W E W R d.[ / E.X   3 Q.*X_.:.Q.r.OX$X/ ] ) ) ) W E T W W ",
"E E E E W W W <.u.i.~.5   : '.W.2.i.).{.[.[.[ -.! ( W W R Y R W ",
"W W W W E R R R ~ :.p.f.w Q.!.; . 7 >.>.>.,.7 e e R R E R Y Y E ",
"R R E E R T R R q @ % a.^./.u ; @ . . . . .   = i ! ( ! E W R Y ",
"Y T T Y T ! ) ) E w   - a.^.(.].1.. o . .   o a _ ) ! W W E Y T ",
"Y Y T Y R ! ! ) ! T &.X 8 d././.~.s.s.s.s.K _ ! E R R T R T Y T ",
"W W R T T R W W E T T #.x S ..B M c I I I e.Y q R R R R R R R E ",
"( ` W R T T T T T E ~ U C } j j f U `.!.Y.e.$.R R E E R E / ( ( ",
"( ( W W E T T T R -.@.k  .5.C M ^ `.;X;X-XY.e.%.( ( R ( ( ) ( ) ",
"W W W W R Y T T W <.g D  .4.5.L y.;X&X&X=X-X] / ) ( R ( ) ( ( ( ",
"W W W R T T T T W 2.v A D } 4.V ;.#X-X-X-X'.%.%.( W W W W W W E ",
"T T T Y R W R T E 1.r s m F  .G l ] @X@X'.w.] E T R R T R R R R ",
"T W W W ( ! R T R 1.l.k.d A D n f d P K P *.T T E R E E T T Y T ",
"( ` ( ` ) ( E Y W 1.b.Z.j.s h f o.|.}.}.S.v.i W W W ) ` W T T E ",
"( ( ( ( ) ! R Y E 1.b.G.Z.n.D.T.|.XXoX.XH.x.p E W ! ) ` ( Y R ( ",
"( ( ( ) W W R Y R #.y V.G.H.K.I.oX.XL.J.V.M.Q R E W ) ) R Y ! ( ",
"( ( ) W E E T R Y Y i c.A.G.G.K.P.F.x.C.x.*.R R R E R R Y R ( ( ",
"( ( W W W E Y T T Y #.N.V.A.C.C.C.B.b.V.N.$.E W W W R T T R ( ( ",
"( E E E W T T W E E ( %.m.t z.z.r r t k.#.) ( E W W W R T E ! ( ",
"E E W W E T W W R ( ( %.~ 1 H H < & < 4 *.' E E ( ! W R T E E E ",
"E ( W W T E W E ( ) ( _ 5 1 J H 6.8.* 9.0 ,.! W ` ) ! R R E E E ",
"( ( W R T E W W _ ( ( #.5 . $ $ & & O & o *.! E ( ( W R T E W E "
};
