/* XPM */
static char *_c1750c20f804552ac6f6ebc7d74636ajWYnyi7P0qQcmojW[] = {
/* columns rows colors chars-per-pixel */
"32 32 199 2 ",
"   c None",
".  c #0B0401",
"X  c #040306",
"o  c #140501",
"O  c #180909",
"+  c #191508",
"@  c #0E0C11",
"#  c #1D1A1A",
"$  c #2D0000",
"%  c #3A0101",
"&  c #360707",
"*  c #2D1800",
"=  c #341E03",
"-  c #3A1D00",
";  c #251515",
":  c #351313",
">  c #3C2304",
",  c #3A2209",
"<  c #2B241A",
"1  c #3A2918",
"2  c #10002F",
"3  c #0D073B",
"4  c #110835",
"5  c #1F2020",
"6  c #3D352A",
"7  c #3F3730",
"8  c #2F2E2D",
"9  c #440303",
"0  c #4A0301",
"q  c #4A080A",
"w  c #570305",
"e  c #481815",
"r  c #4F1C0B",
"t  c #660707",
"y  c #7E0403",
"u  c #740B0B",
"i  c #7B0808",
"p  c #661111",
"a  c #482903",
"s  c #542B00",
"d  c #523213",
"f  c #513210",
"g  c #622A0E",
"h  c #6A3B09",
"j  c #663915",
"k  c #6A3817",
"l  c #6C2411",
"z  c #5B2121",
"x  c #493826",
"c  c #483A3C",
"v  c #533131",
"b  c #593B22",
"n  c #722A2A",
"m  c #613A20",
"M  c #6E4100",
"N  c #7A4604",
"B  c #7F4519",
"V  c #5A6A01",
"C  c #594937",
"Z  c #454A3C",
"A  c #684E34",
"S  c #765736",
"D  c #6D543C",
"F  c #716320",
"G  c #11074A",
"H  c #010064",
"J  c #00006B",
"K  c #070576",
"L  c #0F0E6A",
"P  c #2C0869",
"I  c #183170",
"U  c #2A2D7B",
"Y  c #30397E",
"T  c #471E4F",
"R  c #3B4749",
"E  c #4B454A",
"W  c #4D494D",
"Q  c #564E4B",
"!  c #534D51",
"~  c #4F5353",
"^  c #5B5657",
"/  c #695248",
"(  c #7B664A",
")  c #6D6B53",
"_  c #696666",
"`  c #6D7070",
"'  c #757374",
"]  c #7B7B77",
"[  c #8C0504",
"{  c #880708",
"}  c #94090A",
"|  c #9A0606",
" . c #980312",
".. c #A30A0A",
"X. c #AC0708",
"o. c #B6080B",
"O. c #C5060A",
"+. c #D50B0C",
"@. c #E60A0A",
"#. c #E60909",
"$. c #FD0F0E",
"%. c #F70F0F",
"&. c #E51010",
"*. c #EC1010",
"=. c #8D5301",
"-. c #98570A",
";. c #88500C",
":. c #A35E0D",
">. c #9B660F",
",. c #AB630F",
"<. c #BB6A0B",
"1. c #B5680B",
"2. c #A46619",
"3. c #8F5C33",
"4. c #84542C",
"5. c #A05C24",
"6. c #A96C24",
"7. c #A76D26",
"8. c #A46D39",
"9. c #B16F35",
"0. c #C26E0D",
"q. c #C3700F",
"w. c #D0740C",
"e. c #CE762F",
"r. c #875C4E",
"t. c #886B43",
"y. c #826A59",
"u. c #937756",
"i. c #BC7C44",
"p. c #8E7979",
"a. c #86786C",
"s. c #F37373",
"d. c #658E7D",
"f. c #E18E3F",
"g. c #E1DE00",
"h. c #AA885D",
"j. c #B78A57",
"k. c #908F7F",
"l. c #C88649",
"z. c #C58C57",
"x. c #CE9254",
"c. c #EF974F",
"v. c #FFA054",
"b. c #FFB158",
"n. c #D49D63",
"m. c #C09969",
"M. c #CCA063",
"N. c #D9A467",
"B. c #C6A577",
"V. c #D5AE7E",
"C. c #E4A667",
"Z. c #F8BA74",
"A. c #E2AC73",
"S. c #FFC77D",
"D. c #03009C",
"F. c #001295",
"G. c #1C1D95",
"H. c #033187",
"J. c #3D3D80",
"K. c #0A07B5",
"L. c #0F458C",
"P. c #234E80",
"I. c #0153B7",
"U. c #556484",
"Y. c #0300DA",
"T. c #1210E7",
"R. c #0A07F7",
"E. c #012DE2",
"W. c #0B3CF3",
"Q. c #063CE2",
"!. c #0043C3",
"~. c #044FDD",
"^. c #026BDD",
"/. c #0D57FF",
"(. c #0046E6",
"). c #0C71FF",
"_. c #0B7CFF",
"`. c #0578FF",
"'. c #0982FF",
"]. c #0582FE",
"[. c #848586",
"{. c #979797",
"}. c #A8A6A8",
"|. c #BBB8B8",
" X c #E5BA87",
".X c #FFB1B2",
"XX c #FFD188",
"oX c #FCCF94",
"OX c #FFD294",
"+X c #FED59B",
"@X c #FFDD9B",
"#X c #E8C491",
"$X c #FFDCA2",
"%X c #C7C8CA",
"&X c #D7D4D7",
"*X c #E3DFE4",
"=X c white",
"-X c #F4F3F7",
";X c #EDE9F0",
/* pixels */
"                              c & 9 9 e                         ",
"                          ' 0 X.%.X.i { n                       ",
"                        ~ w #.$.| c [.p.t n                     ",
"                      ^ u @.$.#.: }..Xs.p $                     ",
"                      9 &.%.%.O.; / r.p.p q z `                 ",
"                    Q ..$.&.{ q w [ [ { ..*.+.y v               ",
"                  c y %.*.u w X.&.O.O.O.o.w % % .               ",
"                  ; #.*.u u X.| t k g g k d @ R                 ",
"                : { $.} q } l t.( 8.Z.Z.x.8./                   ",
"              : X.o.} 9 o r x.@XB.C $XN.x < 1 _                 ",
"              : i a x 1 M h n.$XV.u.OX3.l. X#Xh.a.              ",
"                e z.B.( s s / $X+X+X+XZ.OX+X$XXXB               ",
"                5.A.b j.x X ( Z.S C C D C.@XoXi.y.              ",
"                k Z.i.m.C.j.#Xc.o * a = j l.9.(                 ",
"                  4.h.u.c.b.XXv.k a 1.-.> o 8                   ",
"                        A k j e.c.k = * ; ^                     ",
"                        7 2 H ; s T H #                         ",
"                      c [ O.P L w  .L I                         ",
"                      % O.$.[ I.L.y ..I P.                      ",
"                    5 O e ..t I.^.+ 0 G.(.Y                     ",
"                    E %X%X1 H R.8 g.V !.`.d.F                   ",
"                  W &X=X=X|.P.Y.P ,.Z ~.].U.t.                  ",
"                ` ^ }.}.|.-X) D.R.F.~.).'.L.^ _                 ",
"                ' ! ' {.}.] @ K./.`.'._._.H.. ~                 ",
"                  E |.*X;X[.K R./.'.'.'.Q.U Q [.                ",
"                    E E ! x 3 K T.W.W.E.U                       ",
"                      . a a N ;.4 G G 4 <                       ",
"                      = , , M ,.a > h =.;.d                     ",
"                    1 -.,.-.,.q.0.h a ,.w.j                     ",
"                    1 -.1.q.<.<.:.s f 2.:.d                     ",
"                    1 ;.7.6.7.6.5., A M.t.k.                    ",
"                    5 S N.M.M.N.j.< < 7 _                       "
};
