/* XPM */
static char *_c4bcfa400b2474eabe75d16026f9bf3FM3GkYTaca4oAfik[] = {
/* columns rows colors chars-per-pixel */
"32 32 202 2 ",
"   c #030202",
".  c #0A0202",
"X  c #0C0905",
"o  c #0D0D0C",
"O  c #060C0C",
"+  c #130000",
"@  c #1B0303",
"#  c #1B0F09",
"$  c #130C08",
"%  c #16120F",
"&  c #1A1510",
"*  c #131514",
"=  c #2F0101",
"-  c #300000",
";  c #20140A",
":  c #251B13",
">  c #3D1C1C",
",  c #222424",
"<  c #2C2727",
"1  c #282B2B",
"2  c #342E27",
"3  c #323333",
"4  c gray24",
"5  c #430000",
"6  c #4B0000",
"7  c #530101",
"8  c #5B0000",
"9  c #580A09",
"0  c #481010",
"q  c #670202",
"w  c #680000",
"e  c #720000",
"r  c #7D1B1B",
"t  c #50241A",
"y  c #4A221A",
"u  c #4F2121",
"i  c #463627",
"p  c #553B2B",
"a  c #6C3434",
"s  c #5A432F",
"d  c #4F4033",
"f  c #5B4334",
"g  c #53473D",
"h  c #63452B",
"j  c #6D4A2C",
"k  c #754D2D",
"l  c #674A31",
"z  c #734E32",
"x  c #67513D",
"c  c #775131",
"v  c #7A5434",
"b  c #7A583B",
"n  c #4C4C4C",
"m  c #424949",
"M  c #564C4C",
"N  c #565554",
"B  c #5A5A5A",
"V  c #575B5A",
"C  c #4C5656",
"Z  c #645243",
"A  c #6B5644",
"S  c #785C43",
"D  c #635D5A",
"F  c #63605F",
"G  c #766659",
"H  c #5D6262",
"J  c #666666",
"K  c #656B6B",
"L  c #6A6C6C",
"P  c #686665",
"I  c #756A66",
"U  c #797068",
"Y  c #747473",
"T  c #7A7B7B",
"R  c #797B79",
"E  c #870202",
"W  c #8D0202",
"Q  c #9C0000",
"!  c #960000",
"~  c #811A1A",
"^  c #9C1D1D",
"/  c #9F1010",
"(  c #A30101",
")  c #AB0101",
"_  c #A70B0B",
"`  c #B40101",
"'  c #BD0101",
"]  c #B30F0F",
"[  c #A41E1E",
"{  c #A31515",
"}  c #BC1818",
"|  c #9C2121",
" . c #AA2323",
".. c #A53232",
"X. c #A83737",
"o. c #C10101",
"O. c #C30A0A",
"+. c #D91212",
"@. c #D01010",
"#. c #E40000",
"$. c #EC0101",
"%. c #F50303",
"&. c #FE0101",
"*. c #FF0E0E",
"=. c #E21A1A",
"-. c #ED1E1E",
";. c #FE1313",
":. c #FF1E1E",
">. c #CB3A3A",
",. c #FF3131",
"<. c #845227",
"1. c #865329",
"2. c #8A562B",
"3. c #8E592D",
"4. c #905B2F",
"5. c #855934",
"6. c #8C5C34",
"7. c #855B39",
"8. c #895E3A",
"9. c #925D32",
"0. c #8E613D",
"q. c #956136",
"w. c #986337",
"e. c #956239",
"r. c #99653B",
"t. c #9B693F",
"y. c #B35252",
"u. c #BC4A4A",
"i. c #896342",
"p. c #9C6B41",
"a. c #956A46",
"s. c #836B57",
"d. c #806B5A",
"f. c #A1714A",
"g. c #A76262",
"h. c #BF6E6E",
"j. c #D44242",
"k. c #CF5656",
"l. c #C15151",
"z. c #C94848",
"x. c #FF5C5C",
"c. c #FE5454",
"v. c #E95A5A",
"b. c #D46363",
"n. c #DC6262",
"m. c #C87171",
"M. c #DD7F7F",
"N. c #FF6565",
"B. c #FC6D6D",
"V. c #FF7373",
"C. c #FD7C7C",
"Z. c #F77E7E",
"A. c #7C8282",
"S. c #918E8E",
"D. c #919191",
"F. c #999493",
"G. c #898989",
"H. c #9AA5A5",
"J. c #AAAAAA",
"K. c #B0AFAE",
"L. c #AEB3B3",
"P. c #B4B3B3",
"I. c #BCBCBC",
"U. c #D68686",
"Y. c #CF9292",
"T. c #DC9999",
"R. c #FF8E8E",
"E. c #E39999",
"W. c #E99595",
"Q. c #FE9292",
"!. c #FF9C9C",
"~. c #DEAFAF",
"^. c #D6A8A8",
"/. c #C9B8B8",
"(. c #FFA3A3",
"). c #FBACAC",
"_. c #E2B0B0",
"`. c #FFB4B4",
"'. c #FBBBBB",
"]. c gray76",
"[. c #C8C8C8",
"{. c #D9CDCD",
"}. c #DEDEDE",
"|. c #D4D4D4",
" X c #E6C5C5",
".X c #E8CDCD",
"XX c #FFC4C4",
"oX c #FFCACA",
"OX c #F2C5C5",
"+X c #FBD7D7",
"@X c #EAD8D8",
"#X c #E3E4E4",
"$X c #EBECEC",
"%X c #E3EAEA",
"&X c #F7E3E3",
"*X c #FDE5E5",
"=X c #F6EDED",
"-X c #FCEAEA",
";X c #F4F4F4",
":X c #FEF3F3",
">X c #FFFEFE",
",X c #F4FDFD",
/* pixels */
"f.t.e.6.6.q.r.t.t.t.p.r.e.w.e.6.6.6.6.9.r.p.r.e.p.r.q.9.6.e.w.p.",
"q.w.3.1.1.4.q.q.q.e.S   X O               i 6.2.2.6.9.3.1.6.4.6.",
"r.q.2.<.1.3.6.5.c v A N N N > = - - - - = y z k c 5.w.9.1.2.4.e.",
"r.9.2.<.<.3.l &     P >X>X>Xy.W W W W W Q w     . i w.9.1.1.3.w.",
"q.2.1.2.2.j x Y Y T P.>X>X>Xy._ ( ( ( ( ( ^ I T Y G l 7.2.<.1.9.",
"3.1.2.4.b ; B #X$X;X,X>X>X>Xk.` ` ' ` ` ` z.=X,X$XK.X l 2.1.1.6.",
"w.9.6.s Z R ].>X>X>X>X>X`.B.-.#.#.#.#.#.#.+.n.E.>X%XD.I i z 2.r.",
"t.w.0.: M |.>X>X>X>X>X:XV.&.&.&.&.&.&.&.&.$.' z.>X>X;XF.& h 2.r.",
"t.q.e.X C %X>X>X>X>XXXc.:.&.N.Q.!.!.!.!.(.B.#.+.b.E.>XH.O h 3.p.",
"t.q.0.# M {.-X-X-X*XC.&.&.;.'.>X>X>X>X>X>XoX,.%.' >.-XD.$ h 5.r.",
"w.s p 7 r u.v.c.x.x.,.*.x.(.*X>X>X>X>X>X>X-X).C.#.=.b.X.q t p w.",
"e.  + E _ ] +.;.&.&.&.;.!.>X>X>X>X>X>X>X>X>X>X+X&.$.' ) ) 5   r.",
"e.o @ e X.T.'.`.N.&.&.*.R.>X>X>X>X>X>X>X>X>X>XXX&.$.o.) ! 5   e.",
"q.o # ~ h.-X>X>X`.:.*.*.Q.>X>X>X>X>X>X>X>X>X>XXX&.$.' _ [ 0   6.",
"5.X < /.*X,X>X>X:XoXV.&.Q.>X>X>X>X>X>X>X>X>X>XoX&.$.` k.+XI o 6.",
"6.X 3 }.>X>X>X>X>X:XQ.%.Z.&X:X>X>X>X>X>X>X,X=X).%.$.} M.>XA.o 6.",
"w.X 3 }.>X>X>X>X>X:XW.o.} @.OX>X>X>X>X>X>XOX>.' O.j.&X:X>XR o e.",
"t.X < /.&X:X>X>X=X Xm.) ` ) U. X.X.X.X.X@XT.} ) ` z.>X>X>XR o p.",
"p.$ @ r h.=X>X>X_.[ { Q Q Q { [ [ [ [ [  .{ Q Q W y.>X>X>XT o p.",
"r.o @ e ..Y.~._.g.7 7 q 8 8 8 8 8 8 8 8 8 8 8 w E X.^..X>XT o r.",
"q.  + W _ [  . .9         +         . .       @ Q _ ^ U.>XT   e.",
"6.x p 9 7 6 6 6 u L K V 1   m H K V * o n L K M 6 7 5 a S.U Z 6.",
"6.6.8.&         J ;X;X#XL   J.$X;X}.3 , I.;X;XI.          s.5.6.",
"t.r.r.S i   , V L.>X>X;XY   P.>X>X;X3 , [.>X>X%XK m   2 f a.1.e.",
"p.q.w.q.i.# P :X>X>X>X;XL o J.,X>X#X4 1 ].>X>X>X>XI.  G w.<.2.t.",
"t.q.w.w.7.X J >X>X>X>X;XP.Y |.>X>X;XD.G.}.>X>X>X>X].  G 3.<.9.t.",
"t.w.w.4.c : P #X;X>X>X>X>X>X>X>X>X>X>X>X>X>X>X,X$XP.% G 1.2.q.t.",
"p.w.4.2.6.b Z F J.>X>X>X>X>X>X>X>X>X>X>X>X>X>X}.P I b i.2.2.w.p.",
"r.3.3.4.9.1.h X B >X>X>X>X:X>X>X>X>X>X,X>X>X>X].  d 4.2.<.3.9.r.",
"q.3.4.6.3.1.6.8.A n n n n n n n n n n n n n n D i.i.4.2.1.3.4.e.",
"4.q.6.3.1.2.3.3.S X       O   O O   .       X g r.w.9.2.1.3.3.4.",
"f.t.w.q.6.e.w.r.p.p.p.p.w.e.9.6.e.r.6.9.r.p.r.w.p.p.r.9.6.e.e.p."
};
